<mxfile host="app.diagrams.net" modified="2024-02-09T23:46:14.427Z" agent="Mozilla/5.0 (Windows NT 10.0; Win64; x64; rv:122.0) Gecko/20100101 Firefox/122.0" etag="lBwTV5vMmuhDik-Zzn5F" version="23.1.2" type="device">
  <diagram name="Page-1" id="U9aRc9L6Llu2WPrNV2Ci">
    <mxGraphModel dx="1434" dy="774" grid="1" gridSize="10" guides="1" tooltips="1" connect="1" arrows="1" fold="1" page="1" pageScale="1" pageWidth="827" pageHeight="1169" math="0" shadow="0">
      <root>
        <mxCell id="0" />
        <mxCell id="1" parent="0" />
        <mxCell id="P3rJjcqIn0sy1GrmYrkz-1" value="PROJECTS" style="shape=table;startSize=25;container=1;collapsible=0;childLayout=tableLayout;fixedRows=1;rowLines=1;fontStyle=1;align=center;resizeLast=1;" vertex="1" parent="1">
          <mxGeometry x="106" y="474" width="228" height="113" as="geometry" />
        </mxCell>
        <mxCell id="P3rJjcqIn0sy1GrmYrkz-2" style="shape=tableRow;horizontal=0;startSize=0;swimlaneHead=0;swimlaneBody=0;fillColor=none;collapsible=0;dropTarget=0;points=[[0,0.5],[1,0.5]];portConstraint=eastwest;top=0;left=0;right=0;bottom=0;" vertex="1" parent="P3rJjcqIn0sy1GrmYrkz-1">
          <mxGeometry y="25" width="228" height="22" as="geometry" />
        </mxCell>
        <mxCell id="P3rJjcqIn0sy1GrmYrkz-3" value="int" style="shape=partialRectangle;connectable=0;fillColor=none;top=0;left=0;bottom=0;right=0;align=left;spacingLeft=2;overflow=hidden;fontSize=11;" vertex="1" parent="P3rJjcqIn0sy1GrmYrkz-2">
          <mxGeometry width="42" height="22" as="geometry">
            <mxRectangle width="42" height="22" as="alternateBounds" />
          </mxGeometry>
        </mxCell>
        <mxCell id="P3rJjcqIn0sy1GrmYrkz-4" value="id" style="shape=partialRectangle;connectable=0;fillColor=none;top=0;left=0;bottom=0;right=0;align=left;spacingLeft=2;overflow=hidden;fontSize=11;" vertex="1" parent="P3rJjcqIn0sy1GrmYrkz-2">
          <mxGeometry x="42" width="42" height="22" as="geometry">
            <mxRectangle width="42" height="22" as="alternateBounds" />
          </mxGeometry>
        </mxCell>
        <mxCell id="P3rJjcqIn0sy1GrmYrkz-5" value="Auto-increment" style="shape=partialRectangle;connectable=0;fillColor=none;top=0;left=0;bottom=0;right=0;align=left;spacingLeft=2;overflow=hidden;fontSize=11;" vertex="1" parent="P3rJjcqIn0sy1GrmYrkz-2">
          <mxGeometry x="84" width="144" height="22" as="geometry">
            <mxRectangle width="144" height="22" as="alternateBounds" />
          </mxGeometry>
        </mxCell>
        <mxCell id="P3rJjcqIn0sy1GrmYrkz-6" style="shape=tableRow;horizontal=0;startSize=0;swimlaneHead=0;swimlaneBody=0;fillColor=none;collapsible=0;dropTarget=0;points=[[0,0.5],[1,0.5]];portConstraint=eastwest;top=0;left=0;right=0;bottom=0;" vertex="1" parent="P3rJjcqIn0sy1GrmYrkz-1">
          <mxGeometry y="47" width="228" height="22" as="geometry" />
        </mxCell>
        <mxCell id="P3rJjcqIn0sy1GrmYrkz-7" value="string" style="shape=partialRectangle;connectable=0;fillColor=none;top=0;left=0;bottom=0;right=0;align=left;spacingLeft=2;overflow=hidden;fontSize=11;" vertex="1" parent="P3rJjcqIn0sy1GrmYrkz-6">
          <mxGeometry width="42" height="22" as="geometry">
            <mxRectangle width="42" height="22" as="alternateBounds" />
          </mxGeometry>
        </mxCell>
        <mxCell id="P3rJjcqIn0sy1GrmYrkz-8" value="domain" style="shape=partialRectangle;connectable=0;fillColor=none;top=0;left=0;bottom=0;right=0;align=left;spacingLeft=2;overflow=hidden;fontSize=11;" vertex="1" parent="P3rJjcqIn0sy1GrmYrkz-6">
          <mxGeometry x="42" width="42" height="22" as="geometry">
            <mxRectangle width="42" height="22" as="alternateBounds" />
          </mxGeometry>
        </mxCell>
        <mxCell id="P3rJjcqIn0sy1GrmYrkz-9" value="Not nullable, unique" style="shape=partialRectangle;connectable=0;fillColor=none;top=0;left=0;bottom=0;right=0;align=left;spacingLeft=2;overflow=hidden;fontSize=11;" vertex="1" parent="P3rJjcqIn0sy1GrmYrkz-6">
          <mxGeometry x="84" width="144" height="22" as="geometry">
            <mxRectangle width="144" height="22" as="alternateBounds" />
          </mxGeometry>
        </mxCell>
        <mxCell id="P3rJjcqIn0sy1GrmYrkz-10" style="shape=tableRow;horizontal=0;startSize=0;swimlaneHead=0;swimlaneBody=0;fillColor=none;collapsible=0;dropTarget=0;points=[[0,0.5],[1,0.5]];portConstraint=eastwest;top=0;left=0;right=0;bottom=0;" vertex="1" parent="P3rJjcqIn0sy1GrmYrkz-1">
          <mxGeometry y="69" width="228" height="22" as="geometry" />
        </mxCell>
        <mxCell id="P3rJjcqIn0sy1GrmYrkz-11" value="string" style="shape=partialRectangle;connectable=0;fillColor=none;top=0;left=0;bottom=0;right=0;align=left;spacingLeft=2;overflow=hidden;fontSize=11;" vertex="1" parent="P3rJjcqIn0sy1GrmYrkz-10">
          <mxGeometry width="42" height="22" as="geometry">
            <mxRectangle width="42" height="22" as="alternateBounds" />
          </mxGeometry>
        </mxCell>
        <mxCell id="P3rJjcqIn0sy1GrmYrkz-12" value="favicon" style="shape=partialRectangle;connectable=0;fillColor=none;top=0;left=0;bottom=0;right=0;align=left;spacingLeft=2;overflow=hidden;fontSize=11;" vertex="1" parent="P3rJjcqIn0sy1GrmYrkz-10">
          <mxGeometry x="42" width="42" height="22" as="geometry">
            <mxRectangle width="42" height="22" as="alternateBounds" />
          </mxGeometry>
        </mxCell>
        <mxCell id="P3rJjcqIn0sy1GrmYrkz-13" value="Nullable" style="shape=partialRectangle;connectable=0;fillColor=none;top=0;left=0;bottom=0;right=0;align=left;spacingLeft=2;overflow=hidden;fontSize=11;" vertex="1" parent="P3rJjcqIn0sy1GrmYrkz-10">
          <mxGeometry x="84" width="144" height="22" as="geometry">
            <mxRectangle width="144" height="22" as="alternateBounds" />
          </mxGeometry>
        </mxCell>
        <mxCell id="P3rJjcqIn0sy1GrmYrkz-14" style="shape=tableRow;horizontal=0;startSize=0;swimlaneHead=0;swimlaneBody=0;fillColor=none;collapsible=0;dropTarget=0;points=[[0,0.5],[1,0.5]];portConstraint=eastwest;top=0;left=0;right=0;bottom=0;" vertex="1" parent="P3rJjcqIn0sy1GrmYrkz-1">
          <mxGeometry y="91" width="228" height="22" as="geometry" />
        </mxCell>
        <mxCell id="P3rJjcqIn0sy1GrmYrkz-15" value="boolean" style="shape=partialRectangle;connectable=0;fillColor=none;top=0;left=0;bottom=0;right=0;align=left;spacingLeft=2;overflow=hidden;fontSize=11;" vertex="1" parent="P3rJjcqIn0sy1GrmYrkz-14">
          <mxGeometry width="42" height="22" as="geometry">
            <mxRectangle width="42" height="22" as="alternateBounds" />
          </mxGeometry>
        </mxCell>
        <mxCell id="P3rJjcqIn0sy1GrmYrkz-16" value="active" style="shape=partialRectangle;connectable=0;fillColor=none;top=0;left=0;bottom=0;right=0;align=left;spacingLeft=2;overflow=hidden;fontSize=11;" vertex="1" parent="P3rJjcqIn0sy1GrmYrkz-14">
          <mxGeometry x="42" width="42" height="22" as="geometry">
            <mxRectangle width="42" height="22" as="alternateBounds" />
          </mxGeometry>
        </mxCell>
        <mxCell id="P3rJjcqIn0sy1GrmYrkz-17" value="Default: False, Nullable" style="shape=partialRectangle;connectable=0;fillColor=none;top=0;left=0;bottom=0;right=0;align=left;spacingLeft=2;overflow=hidden;fontSize=11;" vertex="1" parent="P3rJjcqIn0sy1GrmYrkz-14">
          <mxGeometry x="84" width="144" height="22" as="geometry">
            <mxRectangle width="144" height="22" as="alternateBounds" />
          </mxGeometry>
        </mxCell>
        <mxCell id="P3rJjcqIn0sy1GrmYrkz-18" value="LOCATIONS" style="shape=table;startSize=25;container=1;collapsible=0;childLayout=tableLayout;fixedRows=1;rowLines=1;fontStyle=1;align=center;resizeLast=1;" vertex="1" parent="1">
          <mxGeometry x="528" y="20" width="234" height="311" as="geometry" />
        </mxCell>
        <mxCell id="P3rJjcqIn0sy1GrmYrkz-19" style="shape=tableRow;horizontal=0;startSize=0;swimlaneHead=0;swimlaneBody=0;fillColor=none;collapsible=0;dropTarget=0;points=[[0,0.5],[1,0.5]];portConstraint=eastwest;top=0;left=0;right=0;bottom=0;" vertex="1" parent="P3rJjcqIn0sy1GrmYrkz-18">
          <mxGeometry y="25" width="234" height="22" as="geometry" />
        </mxCell>
        <mxCell id="P3rJjcqIn0sy1GrmYrkz-20" value="int" style="shape=partialRectangle;connectable=0;fillColor=none;top=0;left=0;bottom=0;right=0;align=left;spacingLeft=2;overflow=hidden;fontSize=11;" vertex="1" parent="P3rJjcqIn0sy1GrmYrkz-19">
          <mxGeometry width="42" height="22" as="geometry">
            <mxRectangle width="42" height="22" as="alternateBounds" />
          </mxGeometry>
        </mxCell>
        <mxCell id="P3rJjcqIn0sy1GrmYrkz-21" value="id" style="shape=partialRectangle;connectable=0;fillColor=none;top=0;left=0;bottom=0;right=0;align=left;spacingLeft=2;overflow=hidden;fontSize=11;" vertex="1" parent="P3rJjcqIn0sy1GrmYrkz-19">
          <mxGeometry x="42" width="108" height="22" as="geometry">
            <mxRectangle width="108" height="22" as="alternateBounds" />
          </mxGeometry>
        </mxCell>
        <mxCell id="P3rJjcqIn0sy1GrmYrkz-22" value="Auto-increment" style="shape=partialRectangle;connectable=0;fillColor=none;top=0;left=0;bottom=0;right=0;align=left;spacingLeft=2;overflow=hidden;fontSize=11;" vertex="1" parent="P3rJjcqIn0sy1GrmYrkz-19">
          <mxGeometry x="150" width="84" height="22" as="geometry">
            <mxRectangle width="84" height="22" as="alternateBounds" />
          </mxGeometry>
        </mxCell>
        <mxCell id="P3rJjcqIn0sy1GrmYrkz-23" style="shape=tableRow;horizontal=0;startSize=0;swimlaneHead=0;swimlaneBody=0;fillColor=none;collapsible=0;dropTarget=0;points=[[0,0.5],[1,0.5]];portConstraint=eastwest;top=0;left=0;right=0;bottom=0;" vertex="1" parent="P3rJjcqIn0sy1GrmYrkz-18">
          <mxGeometry y="47" width="234" height="22" as="geometry" />
        </mxCell>
        <mxCell id="P3rJjcqIn0sy1GrmYrkz-24" value="string" style="shape=partialRectangle;connectable=0;fillColor=none;top=0;left=0;bottom=0;right=0;align=left;spacingLeft=2;overflow=hidden;fontSize=11;" vertex="1" parent="P3rJjcqIn0sy1GrmYrkz-23">
          <mxGeometry width="42" height="22" as="geometry">
            <mxRectangle width="42" height="22" as="alternateBounds" />
          </mxGeometry>
        </mxCell>
        <mxCell id="P3rJjcqIn0sy1GrmYrkz-25" value="continent" style="shape=partialRectangle;connectable=0;fillColor=none;top=0;left=0;bottom=0;right=0;align=left;spacingLeft=2;overflow=hidden;fontSize=11;" vertex="1" parent="P3rJjcqIn0sy1GrmYrkz-23">
          <mxGeometry x="42" width="108" height="22" as="geometry">
            <mxRectangle width="108" height="22" as="alternateBounds" />
          </mxGeometry>
        </mxCell>
        <mxCell id="P3rJjcqIn0sy1GrmYrkz-26" value="Nullable" style="shape=partialRectangle;connectable=0;fillColor=none;top=0;left=0;bottom=0;right=0;align=left;spacingLeft=2;overflow=hidden;fontSize=11;" vertex="1" parent="P3rJjcqIn0sy1GrmYrkz-23">
          <mxGeometry x="150" width="84" height="22" as="geometry">
            <mxRectangle width="84" height="22" as="alternateBounds" />
          </mxGeometry>
        </mxCell>
        <mxCell id="P3rJjcqIn0sy1GrmYrkz-27" style="shape=tableRow;horizontal=0;startSize=0;swimlaneHead=0;swimlaneBody=0;fillColor=none;collapsible=0;dropTarget=0;points=[[0,0.5],[1,0.5]];portConstraint=eastwest;top=0;left=0;right=0;bottom=0;" vertex="1" parent="P3rJjcqIn0sy1GrmYrkz-18">
          <mxGeometry y="69" width="234" height="22" as="geometry" />
        </mxCell>
        <mxCell id="P3rJjcqIn0sy1GrmYrkz-28" value="string" style="shape=partialRectangle;connectable=0;fillColor=none;top=0;left=0;bottom=0;right=0;align=left;spacingLeft=2;overflow=hidden;fontSize=11;" vertex="1" parent="P3rJjcqIn0sy1GrmYrkz-27">
          <mxGeometry width="42" height="22" as="geometry">
            <mxRectangle width="42" height="22" as="alternateBounds" />
          </mxGeometry>
        </mxCell>
        <mxCell id="P3rJjcqIn0sy1GrmYrkz-29" value="continent_code" style="shape=partialRectangle;connectable=0;fillColor=none;top=0;left=0;bottom=0;right=0;align=left;spacingLeft=2;overflow=hidden;fontSize=11;" vertex="1" parent="P3rJjcqIn0sy1GrmYrkz-27">
          <mxGeometry x="42" width="108" height="22" as="geometry">
            <mxRectangle width="108" height="22" as="alternateBounds" />
          </mxGeometry>
        </mxCell>
        <mxCell id="P3rJjcqIn0sy1GrmYrkz-30" value="Nullable" style="shape=partialRectangle;connectable=0;fillColor=none;top=0;left=0;bottom=0;right=0;align=left;spacingLeft=2;overflow=hidden;fontSize=11;" vertex="1" parent="P3rJjcqIn0sy1GrmYrkz-27">
          <mxGeometry x="150" width="84" height="22" as="geometry">
            <mxRectangle width="84" height="22" as="alternateBounds" />
          </mxGeometry>
        </mxCell>
        <mxCell id="P3rJjcqIn0sy1GrmYrkz-31" style="shape=tableRow;horizontal=0;startSize=0;swimlaneHead=0;swimlaneBody=0;fillColor=none;collapsible=0;dropTarget=0;points=[[0,0.5],[1,0.5]];portConstraint=eastwest;top=0;left=0;right=0;bottom=0;" vertex="1" parent="P3rJjcqIn0sy1GrmYrkz-18">
          <mxGeometry y="91" width="234" height="22" as="geometry" />
        </mxCell>
        <mxCell id="P3rJjcqIn0sy1GrmYrkz-32" value="string" style="shape=partialRectangle;connectable=0;fillColor=none;top=0;left=0;bottom=0;right=0;align=left;spacingLeft=2;overflow=hidden;fontSize=11;" vertex="1" parent="P3rJjcqIn0sy1GrmYrkz-31">
          <mxGeometry width="42" height="22" as="geometry">
            <mxRectangle width="42" height="22" as="alternateBounds" />
          </mxGeometry>
        </mxCell>
        <mxCell id="P3rJjcqIn0sy1GrmYrkz-33" value="country" style="shape=partialRectangle;connectable=0;fillColor=none;top=0;left=0;bottom=0;right=0;align=left;spacingLeft=2;overflow=hidden;fontSize=11;" vertex="1" parent="P3rJjcqIn0sy1GrmYrkz-31">
          <mxGeometry x="42" width="108" height="22" as="geometry">
            <mxRectangle width="108" height="22" as="alternateBounds" />
          </mxGeometry>
        </mxCell>
        <mxCell id="P3rJjcqIn0sy1GrmYrkz-34" value="Nullable" style="shape=partialRectangle;connectable=0;fillColor=none;top=0;left=0;bottom=0;right=0;align=left;spacingLeft=2;overflow=hidden;fontSize=11;" vertex="1" parent="P3rJjcqIn0sy1GrmYrkz-31">
          <mxGeometry x="150" width="84" height="22" as="geometry">
            <mxRectangle width="84" height="22" as="alternateBounds" />
          </mxGeometry>
        </mxCell>
        <mxCell id="P3rJjcqIn0sy1GrmYrkz-35" style="shape=tableRow;horizontal=0;startSize=0;swimlaneHead=0;swimlaneBody=0;fillColor=none;collapsible=0;dropTarget=0;points=[[0,0.5],[1,0.5]];portConstraint=eastwest;top=0;left=0;right=0;bottom=0;" vertex="1" parent="P3rJjcqIn0sy1GrmYrkz-18">
          <mxGeometry y="113" width="234" height="22" as="geometry" />
        </mxCell>
        <mxCell id="P3rJjcqIn0sy1GrmYrkz-36" value="string" style="shape=partialRectangle;connectable=0;fillColor=none;top=0;left=0;bottom=0;right=0;align=left;spacingLeft=2;overflow=hidden;fontSize=11;" vertex="1" parent="P3rJjcqIn0sy1GrmYrkz-35">
          <mxGeometry width="42" height="22" as="geometry">
            <mxRectangle width="42" height="22" as="alternateBounds" />
          </mxGeometry>
        </mxCell>
        <mxCell id="P3rJjcqIn0sy1GrmYrkz-37" value="country_code" style="shape=partialRectangle;connectable=0;fillColor=none;top=0;left=0;bottom=0;right=0;align=left;spacingLeft=2;overflow=hidden;fontSize=11;" vertex="1" parent="P3rJjcqIn0sy1GrmYrkz-35">
          <mxGeometry x="42" width="108" height="22" as="geometry">
            <mxRectangle width="108" height="22" as="alternateBounds" />
          </mxGeometry>
        </mxCell>
        <mxCell id="P3rJjcqIn0sy1GrmYrkz-38" value="Nullable" style="shape=partialRectangle;connectable=0;fillColor=none;top=0;left=0;bottom=0;right=0;align=left;spacingLeft=2;overflow=hidden;fontSize=11;" vertex="1" parent="P3rJjcqIn0sy1GrmYrkz-35">
          <mxGeometry x="150" width="84" height="22" as="geometry">
            <mxRectangle width="84" height="22" as="alternateBounds" />
          </mxGeometry>
        </mxCell>
        <mxCell id="P3rJjcqIn0sy1GrmYrkz-39" style="shape=tableRow;horizontal=0;startSize=0;swimlaneHead=0;swimlaneBody=0;fillColor=none;collapsible=0;dropTarget=0;points=[[0,0.5],[1,0.5]];portConstraint=eastwest;top=0;left=0;right=0;bottom=0;" vertex="1" parent="P3rJjcqIn0sy1GrmYrkz-18">
          <mxGeometry y="135" width="234" height="22" as="geometry" />
        </mxCell>
        <mxCell id="P3rJjcqIn0sy1GrmYrkz-40" value="string" style="shape=partialRectangle;connectable=0;fillColor=none;top=0;left=0;bottom=0;right=0;align=left;spacingLeft=2;overflow=hidden;fontSize=11;" vertex="1" parent="P3rJjcqIn0sy1GrmYrkz-39">
          <mxGeometry width="42" height="22" as="geometry">
            <mxRectangle width="42" height="22" as="alternateBounds" />
          </mxGeometry>
        </mxCell>
        <mxCell id="P3rJjcqIn0sy1GrmYrkz-41" value="region" style="shape=partialRectangle;connectable=0;fillColor=none;top=0;left=0;bottom=0;right=0;align=left;spacingLeft=2;overflow=hidden;fontSize=11;" vertex="1" parent="P3rJjcqIn0sy1GrmYrkz-39">
          <mxGeometry x="42" width="108" height="22" as="geometry">
            <mxRectangle width="108" height="22" as="alternateBounds" />
          </mxGeometry>
        </mxCell>
        <mxCell id="P3rJjcqIn0sy1GrmYrkz-42" value="Nullable" style="shape=partialRectangle;connectable=0;fillColor=none;top=0;left=0;bottom=0;right=0;align=left;spacingLeft=2;overflow=hidden;fontSize=11;" vertex="1" parent="P3rJjcqIn0sy1GrmYrkz-39">
          <mxGeometry x="150" width="84" height="22" as="geometry">
            <mxRectangle width="84" height="22" as="alternateBounds" />
          </mxGeometry>
        </mxCell>
        <mxCell id="P3rJjcqIn0sy1GrmYrkz-43" style="shape=tableRow;horizontal=0;startSize=0;swimlaneHead=0;swimlaneBody=0;fillColor=none;collapsible=0;dropTarget=0;points=[[0,0.5],[1,0.5]];portConstraint=eastwest;top=0;left=0;right=0;bottom=0;" vertex="1" parent="P3rJjcqIn0sy1GrmYrkz-18">
          <mxGeometry y="157" width="234" height="22" as="geometry" />
        </mxCell>
        <mxCell id="P3rJjcqIn0sy1GrmYrkz-44" value="string" style="shape=partialRectangle;connectable=0;fillColor=none;top=0;left=0;bottom=0;right=0;align=left;spacingLeft=2;overflow=hidden;fontSize=11;" vertex="1" parent="P3rJjcqIn0sy1GrmYrkz-43">
          <mxGeometry width="42" height="22" as="geometry">
            <mxRectangle width="42" height="22" as="alternateBounds" />
          </mxGeometry>
        </mxCell>
        <mxCell id="P3rJjcqIn0sy1GrmYrkz-45" value="region_code" style="shape=partialRectangle;connectable=0;fillColor=none;top=0;left=0;bottom=0;right=0;align=left;spacingLeft=2;overflow=hidden;fontSize=11;" vertex="1" parent="P3rJjcqIn0sy1GrmYrkz-43">
          <mxGeometry x="42" width="108" height="22" as="geometry">
            <mxRectangle width="108" height="22" as="alternateBounds" />
          </mxGeometry>
        </mxCell>
        <mxCell id="P3rJjcqIn0sy1GrmYrkz-46" value="Nullable" style="shape=partialRectangle;connectable=0;fillColor=none;top=0;left=0;bottom=0;right=0;align=left;spacingLeft=2;overflow=hidden;fontSize=11;" vertex="1" parent="P3rJjcqIn0sy1GrmYrkz-43">
          <mxGeometry x="150" width="84" height="22" as="geometry">
            <mxRectangle width="84" height="22" as="alternateBounds" />
          </mxGeometry>
        </mxCell>
        <mxCell id="P3rJjcqIn0sy1GrmYrkz-47" style="shape=tableRow;horizontal=0;startSize=0;swimlaneHead=0;swimlaneBody=0;fillColor=none;collapsible=0;dropTarget=0;points=[[0,0.5],[1,0.5]];portConstraint=eastwest;top=0;left=0;right=0;bottom=0;" vertex="1" parent="P3rJjcqIn0sy1GrmYrkz-18">
          <mxGeometry y="179" width="234" height="22" as="geometry" />
        </mxCell>
        <mxCell id="P3rJjcqIn0sy1GrmYrkz-48" value="string" style="shape=partialRectangle;connectable=0;fillColor=none;top=0;left=0;bottom=0;right=0;align=left;spacingLeft=2;overflow=hidden;fontSize=11;" vertex="1" parent="P3rJjcqIn0sy1GrmYrkz-47">
          <mxGeometry width="42" height="22" as="geometry">
            <mxRectangle width="42" height="22" as="alternateBounds" />
          </mxGeometry>
        </mxCell>
        <mxCell id="P3rJjcqIn0sy1GrmYrkz-49" value="city" style="shape=partialRectangle;connectable=0;fillColor=none;top=0;left=0;bottom=0;right=0;align=left;spacingLeft=2;overflow=hidden;fontSize=11;" vertex="1" parent="P3rJjcqIn0sy1GrmYrkz-47">
          <mxGeometry x="42" width="108" height="22" as="geometry">
            <mxRectangle width="108" height="22" as="alternateBounds" />
          </mxGeometry>
        </mxCell>
        <mxCell id="P3rJjcqIn0sy1GrmYrkz-50" value="Not nullable" style="shape=partialRectangle;connectable=0;fillColor=none;top=0;left=0;bottom=0;right=0;align=left;spacingLeft=2;overflow=hidden;fontSize=11;" vertex="1" parent="P3rJjcqIn0sy1GrmYrkz-47">
          <mxGeometry x="150" width="84" height="22" as="geometry">
            <mxRectangle width="84" height="22" as="alternateBounds" />
          </mxGeometry>
        </mxCell>
        <mxCell id="P3rJjcqIn0sy1GrmYrkz-51" style="shape=tableRow;horizontal=0;startSize=0;swimlaneHead=0;swimlaneBody=0;fillColor=none;collapsible=0;dropTarget=0;points=[[0,0.5],[1,0.5]];portConstraint=eastwest;top=0;left=0;right=0;bottom=0;" vertex="1" parent="P3rJjcqIn0sy1GrmYrkz-18">
          <mxGeometry y="201" width="234" height="22" as="geometry" />
        </mxCell>
        <mxCell id="P3rJjcqIn0sy1GrmYrkz-52" value="decimal" style="shape=partialRectangle;connectable=0;fillColor=none;top=0;left=0;bottom=0;right=0;align=left;spacingLeft=2;overflow=hidden;fontSize=11;" vertex="1" parent="P3rJjcqIn0sy1GrmYrkz-51">
          <mxGeometry width="42" height="22" as="geometry">
            <mxRectangle width="42" height="22" as="alternateBounds" />
          </mxGeometry>
        </mxCell>
        <mxCell id="P3rJjcqIn0sy1GrmYrkz-53" value="latitude" style="shape=partialRectangle;connectable=0;fillColor=none;top=0;left=0;bottom=0;right=0;align=left;spacingLeft=2;overflow=hidden;fontSize=11;" vertex="1" parent="P3rJjcqIn0sy1GrmYrkz-51">
          <mxGeometry x="42" width="108" height="22" as="geometry">
            <mxRectangle width="108" height="22" as="alternateBounds" />
          </mxGeometry>
        </mxCell>
        <mxCell id="P3rJjcqIn0sy1GrmYrkz-54" value="Not nullable" style="shape=partialRectangle;connectable=0;fillColor=none;top=0;left=0;bottom=0;right=0;align=left;spacingLeft=2;overflow=hidden;fontSize=11;" vertex="1" parent="P3rJjcqIn0sy1GrmYrkz-51">
          <mxGeometry x="150" width="84" height="22" as="geometry">
            <mxRectangle width="84" height="22" as="alternateBounds" />
          </mxGeometry>
        </mxCell>
        <mxCell id="P3rJjcqIn0sy1GrmYrkz-55" style="shape=tableRow;horizontal=0;startSize=0;swimlaneHead=0;swimlaneBody=0;fillColor=none;collapsible=0;dropTarget=0;points=[[0,0.5],[1,0.5]];portConstraint=eastwest;top=0;left=0;right=0;bottom=0;" vertex="1" parent="P3rJjcqIn0sy1GrmYrkz-18">
          <mxGeometry y="223" width="234" height="22" as="geometry" />
        </mxCell>
        <mxCell id="P3rJjcqIn0sy1GrmYrkz-56" value="decimal" style="shape=partialRectangle;connectable=0;fillColor=none;top=0;left=0;bottom=0;right=0;align=left;spacingLeft=2;overflow=hidden;fontSize=11;" vertex="1" parent="P3rJjcqIn0sy1GrmYrkz-55">
          <mxGeometry width="42" height="22" as="geometry">
            <mxRectangle width="42" height="22" as="alternateBounds" />
          </mxGeometry>
        </mxCell>
        <mxCell id="P3rJjcqIn0sy1GrmYrkz-57" value="longitude" style="shape=partialRectangle;connectable=0;fillColor=none;top=0;left=0;bottom=0;right=0;align=left;spacingLeft=2;overflow=hidden;fontSize=11;" vertex="1" parent="P3rJjcqIn0sy1GrmYrkz-55">
          <mxGeometry x="42" width="108" height="22" as="geometry">
            <mxRectangle width="108" height="22" as="alternateBounds" />
          </mxGeometry>
        </mxCell>
        <mxCell id="P3rJjcqIn0sy1GrmYrkz-58" value="Not nullable" style="shape=partialRectangle;connectable=0;fillColor=none;top=0;left=0;bottom=0;right=0;align=left;spacingLeft=2;overflow=hidden;fontSize=11;" vertex="1" parent="P3rJjcqIn0sy1GrmYrkz-55">
          <mxGeometry x="150" width="84" height="22" as="geometry">
            <mxRectangle width="84" height="22" as="alternateBounds" />
          </mxGeometry>
        </mxCell>
        <mxCell id="P3rJjcqIn0sy1GrmYrkz-59" style="shape=tableRow;horizontal=0;startSize=0;swimlaneHead=0;swimlaneBody=0;fillColor=none;collapsible=0;dropTarget=0;points=[[0,0.5],[1,0.5]];portConstraint=eastwest;top=0;left=0;right=0;bottom=0;" vertex="1" parent="P3rJjcqIn0sy1GrmYrkz-18">
          <mxGeometry y="245" width="234" height="22" as="geometry" />
        </mxCell>
        <mxCell id="P3rJjcqIn0sy1GrmYrkz-60" value="string" style="shape=partialRectangle;connectable=0;fillColor=none;top=0;left=0;bottom=0;right=0;align=left;spacingLeft=2;overflow=hidden;fontSize=11;" vertex="1" parent="P3rJjcqIn0sy1GrmYrkz-59">
          <mxGeometry width="42" height="22" as="geometry">
            <mxRectangle width="42" height="22" as="alternateBounds" />
          </mxGeometry>
        </mxCell>
        <mxCell id="P3rJjcqIn0sy1GrmYrkz-61" value="postal" style="shape=partialRectangle;connectable=0;fillColor=none;top=0;left=0;bottom=0;right=0;align=left;spacingLeft=2;overflow=hidden;fontSize=11;" vertex="1" parent="P3rJjcqIn0sy1GrmYrkz-59">
          <mxGeometry x="42" width="108" height="22" as="geometry">
            <mxRectangle width="108" height="22" as="alternateBounds" />
          </mxGeometry>
        </mxCell>
        <mxCell id="P3rJjcqIn0sy1GrmYrkz-62" value="Nullable" style="shape=partialRectangle;connectable=0;fillColor=none;top=0;left=0;bottom=0;right=0;align=left;spacingLeft=2;overflow=hidden;fontSize=11;" vertex="1" parent="P3rJjcqIn0sy1GrmYrkz-59">
          <mxGeometry x="150" width="84" height="22" as="geometry">
            <mxRectangle width="84" height="22" as="alternateBounds" />
          </mxGeometry>
        </mxCell>
        <mxCell id="P3rJjcqIn0sy1GrmYrkz-63" style="shape=tableRow;horizontal=0;startSize=0;swimlaneHead=0;swimlaneBody=0;fillColor=none;collapsible=0;dropTarget=0;points=[[0,0.5],[1,0.5]];portConstraint=eastwest;top=0;left=0;right=0;bottom=0;" vertex="1" parent="P3rJjcqIn0sy1GrmYrkz-18">
          <mxGeometry y="267" width="234" height="22" as="geometry" />
        </mxCell>
        <mxCell id="P3rJjcqIn0sy1GrmYrkz-64" value="string" style="shape=partialRectangle;connectable=0;fillColor=none;top=0;left=0;bottom=0;right=0;align=left;spacingLeft=2;overflow=hidden;fontSize=11;" vertex="1" parent="P3rJjcqIn0sy1GrmYrkz-63">
          <mxGeometry width="42" height="22" as="geometry">
            <mxRectangle width="42" height="22" as="alternateBounds" />
          </mxGeometry>
        </mxCell>
        <mxCell id="P3rJjcqIn0sy1GrmYrkz-65" value="flag_img_url" style="shape=partialRectangle;connectable=0;fillColor=none;top=0;left=0;bottom=0;right=0;align=left;spacingLeft=2;overflow=hidden;fontSize=11;" vertex="1" parent="P3rJjcqIn0sy1GrmYrkz-63">
          <mxGeometry x="42" width="108" height="22" as="geometry">
            <mxRectangle width="108" height="22" as="alternateBounds" />
          </mxGeometry>
        </mxCell>
        <mxCell id="P3rJjcqIn0sy1GrmYrkz-66" value="Nullable" style="shape=partialRectangle;connectable=0;fillColor=none;top=0;left=0;bottom=0;right=0;align=left;spacingLeft=2;overflow=hidden;fontSize=11;" vertex="1" parent="P3rJjcqIn0sy1GrmYrkz-63">
          <mxGeometry x="150" width="84" height="22" as="geometry">
            <mxRectangle width="84" height="22" as="alternateBounds" />
          </mxGeometry>
        </mxCell>
        <mxCell id="P3rJjcqIn0sy1GrmYrkz-67" style="shape=tableRow;horizontal=0;startSize=0;swimlaneHead=0;swimlaneBody=0;fillColor=none;collapsible=0;dropTarget=0;points=[[0,0.5],[1,0.5]];portConstraint=eastwest;top=0;left=0;right=0;bottom=0;" vertex="1" parent="P3rJjcqIn0sy1GrmYrkz-18">
          <mxGeometry y="289" width="234" height="22" as="geometry" />
        </mxCell>
        <mxCell id="P3rJjcqIn0sy1GrmYrkz-68" value="string" style="shape=partialRectangle;connectable=0;fillColor=none;top=0;left=0;bottom=0;right=0;align=left;spacingLeft=2;overflow=hidden;fontSize=11;" vertex="1" parent="P3rJjcqIn0sy1GrmYrkz-67">
          <mxGeometry width="42" height="22" as="geometry">
            <mxRectangle width="42" height="22" as="alternateBounds" />
          </mxGeometry>
        </mxCell>
        <mxCell id="P3rJjcqIn0sy1GrmYrkz-69" value="flag_emoji" style="shape=partialRectangle;connectable=0;fillColor=none;top=0;left=0;bottom=0;right=0;align=left;spacingLeft=2;overflow=hidden;fontSize=11;" vertex="1" parent="P3rJjcqIn0sy1GrmYrkz-67">
          <mxGeometry x="42" width="108" height="22" as="geometry">
            <mxRectangle width="108" height="22" as="alternateBounds" />
          </mxGeometry>
        </mxCell>
        <mxCell id="P3rJjcqIn0sy1GrmYrkz-70" value="Nullable" style="shape=partialRectangle;connectable=0;fillColor=none;top=0;left=0;bottom=0;right=0;align=left;spacingLeft=2;overflow=hidden;fontSize=11;" vertex="1" parent="P3rJjcqIn0sy1GrmYrkz-67">
          <mxGeometry x="150" width="84" height="22" as="geometry">
            <mxRectangle width="84" height="22" as="alternateBounds" />
          </mxGeometry>
        </mxCell>
        <mxCell id="P3rJjcqIn0sy1GrmYrkz-71" value="VISITOR_IPS" style="shape=table;startSize=25;container=1;collapsible=0;childLayout=tableLayout;fixedRows=1;rowLines=1;fontStyle=1;align=center;resizeLast=1;" vertex="1" parent="1">
          <mxGeometry x="505" y="430" width="300" height="201" as="geometry" />
        </mxCell>
        <mxCell id="P3rJjcqIn0sy1GrmYrkz-72" style="shape=tableRow;horizontal=0;startSize=0;swimlaneHead=0;swimlaneBody=0;fillColor=none;collapsible=0;dropTarget=0;points=[[0,0.5],[1,0.5]];portConstraint=eastwest;top=0;left=0;right=0;bottom=0;" vertex="1" parent="P3rJjcqIn0sy1GrmYrkz-71">
          <mxGeometry y="25" width="300" height="22" as="geometry" />
        </mxCell>
        <mxCell id="P3rJjcqIn0sy1GrmYrkz-73" value="int" style="shape=partialRectangle;connectable=0;fillColor=none;top=0;left=0;bottom=0;right=0;align=left;spacingLeft=2;overflow=hidden;fontSize=11;" vertex="1" parent="P3rJjcqIn0sy1GrmYrkz-72">
          <mxGeometry width="36" height="22" as="geometry">
            <mxRectangle width="36" height="22" as="alternateBounds" />
          </mxGeometry>
        </mxCell>
        <mxCell id="P3rJjcqIn0sy1GrmYrkz-74" value="id" style="shape=partialRectangle;connectable=0;fillColor=none;top=0;left=0;bottom=0;right=0;align=left;spacingLeft=2;overflow=hidden;fontSize=11;" vertex="1" parent="P3rJjcqIn0sy1GrmYrkz-72">
          <mxGeometry x="36" width="66" height="22" as="geometry">
            <mxRectangle width="66" height="22" as="alternateBounds" />
          </mxGeometry>
        </mxCell>
        <mxCell id="P3rJjcqIn0sy1GrmYrkz-75" value="Integer" style="shape=partialRectangle;connectable=0;fillColor=none;top=0;left=0;bottom=0;right=0;align=left;spacingLeft=2;overflow=hidden;fontSize=11;" vertex="1" parent="P3rJjcqIn0sy1GrmYrkz-72">
          <mxGeometry x="102" width="198" height="22" as="geometry">
            <mxRectangle width="198" height="22" as="alternateBounds" />
          </mxGeometry>
        </mxCell>
        <mxCell id="P3rJjcqIn0sy1GrmYrkz-76" style="shape=tableRow;horizontal=0;startSize=0;swimlaneHead=0;swimlaneBody=0;fillColor=none;collapsible=0;dropTarget=0;points=[[0,0.5],[1,0.5]];portConstraint=eastwest;top=0;left=0;right=0;bottom=0;" vertex="1" parent="P3rJjcqIn0sy1GrmYrkz-71">
          <mxGeometry y="47" width="300" height="22" as="geometry" />
        </mxCell>
        <mxCell id="P3rJjcqIn0sy1GrmYrkz-77" value="string" style="shape=partialRectangle;connectable=0;fillColor=none;top=0;left=0;bottom=0;right=0;align=left;spacingLeft=2;overflow=hidden;fontSize=11;" vertex="1" parent="P3rJjcqIn0sy1GrmYrkz-76">
          <mxGeometry width="36" height="22" as="geometry">
            <mxRectangle width="36" height="22" as="alternateBounds" />
          </mxGeometry>
        </mxCell>
        <mxCell id="P3rJjcqIn0sy1GrmYrkz-78" value="ip" style="shape=partialRectangle;connectable=0;fillColor=none;top=0;left=0;bottom=0;right=0;align=left;spacingLeft=2;overflow=hidden;fontSize=11;" vertex="1" parent="P3rJjcqIn0sy1GrmYrkz-76">
          <mxGeometry x="36" width="66" height="22" as="geometry">
            <mxRectangle width="66" height="22" as="alternateBounds" />
          </mxGeometry>
        </mxCell>
        <mxCell id="P3rJjcqIn0sy1GrmYrkz-79" value="Not nullable, unique" style="shape=partialRectangle;connectable=0;fillColor=none;top=0;left=0;bottom=0;right=0;align=left;spacingLeft=2;overflow=hidden;fontSize=11;" vertex="1" parent="P3rJjcqIn0sy1GrmYrkz-76">
          <mxGeometry x="102" width="198" height="22" as="geometry">
            <mxRectangle width="198" height="22" as="alternateBounds" />
          </mxGeometry>
        </mxCell>
        <mxCell id="P3rJjcqIn0sy1GrmYrkz-80" style="shape=tableRow;horizontal=0;startSize=0;swimlaneHead=0;swimlaneBody=0;fillColor=none;collapsible=0;dropTarget=0;points=[[0,0.5],[1,0.5]];portConstraint=eastwest;top=0;left=0;right=0;bottom=0;" vertex="1" parent="P3rJjcqIn0sy1GrmYrkz-71">
          <mxGeometry y="69" width="300" height="22" as="geometry" />
        </mxCell>
        <mxCell id="P3rJjcqIn0sy1GrmYrkz-81" value="int" style="shape=partialRectangle;connectable=0;fillColor=none;top=0;left=0;bottom=0;right=0;align=left;spacingLeft=2;overflow=hidden;fontSize=11;" vertex="1" parent="P3rJjcqIn0sy1GrmYrkz-80">
          <mxGeometry width="36" height="22" as="geometry">
            <mxRectangle width="36" height="22" as="alternateBounds" />
          </mxGeometry>
        </mxCell>
        <mxCell id="P3rJjcqIn0sy1GrmYrkz-82" value="location_id" style="shape=partialRectangle;connectable=0;fillColor=none;top=0;left=0;bottom=0;right=0;align=left;spacingLeft=2;overflow=hidden;fontSize=11;" vertex="1" parent="P3rJjcqIn0sy1GrmYrkz-80">
          <mxGeometry x="36" width="66" height="22" as="geometry">
            <mxRectangle width="66" height="22" as="alternateBounds" />
          </mxGeometry>
        </mxCell>
        <mxCell id="P3rJjcqIn0sy1GrmYrkz-83" value="Nullable, References locations.id" style="shape=partialRectangle;connectable=0;fillColor=none;top=0;left=0;bottom=0;right=0;align=left;spacingLeft=2;overflow=hidden;fontSize=11;" vertex="1" parent="P3rJjcqIn0sy1GrmYrkz-80">
          <mxGeometry x="102" width="198" height="22" as="geometry">
            <mxRectangle width="198" height="22" as="alternateBounds" />
          </mxGeometry>
        </mxCell>
        <mxCell id="P3rJjcqIn0sy1GrmYrkz-84" style="shape=tableRow;horizontal=0;startSize=0;swimlaneHead=0;swimlaneBody=0;fillColor=none;collapsible=0;dropTarget=0;points=[[0,0.5],[1,0.5]];portConstraint=eastwest;top=0;left=0;right=0;bottom=0;" vertex="1" parent="P3rJjcqIn0sy1GrmYrkz-71">
          <mxGeometry y="91" width="300" height="22" as="geometry" />
        </mxCell>
        <mxCell id="P3rJjcqIn0sy1GrmYrkz-85" value="string" style="shape=partialRectangle;connectable=0;fillColor=none;top=0;left=0;bottom=0;right=0;align=left;spacingLeft=2;overflow=hidden;fontSize=11;" vertex="1" parent="P3rJjcqIn0sy1GrmYrkz-84">
          <mxGeometry width="36" height="22" as="geometry">
            <mxRectangle width="36" height="22" as="alternateBounds" />
          </mxGeometry>
        </mxCell>
        <mxCell id="P3rJjcqIn0sy1GrmYrkz-86" value="type" style="shape=partialRectangle;connectable=0;fillColor=none;top=0;left=0;bottom=0;right=0;align=left;spacingLeft=2;overflow=hidden;fontSize=11;" vertex="1" parent="P3rJjcqIn0sy1GrmYrkz-84">
          <mxGeometry x="36" width="66" height="22" as="geometry">
            <mxRectangle width="66" height="22" as="alternateBounds" />
          </mxGeometry>
        </mxCell>
        <mxCell id="P3rJjcqIn0sy1GrmYrkz-87" value="Not nullable" style="shape=partialRectangle;connectable=0;fillColor=none;top=0;left=0;bottom=0;right=0;align=left;spacingLeft=2;overflow=hidden;fontSize=11;" vertex="1" parent="P3rJjcqIn0sy1GrmYrkz-84">
          <mxGeometry x="102" width="198" height="22" as="geometry">
            <mxRectangle width="198" height="22" as="alternateBounds" />
          </mxGeometry>
        </mxCell>
        <mxCell id="P3rJjcqIn0sy1GrmYrkz-88" style="shape=tableRow;horizontal=0;startSize=0;swimlaneHead=0;swimlaneBody=0;fillColor=none;collapsible=0;dropTarget=0;points=[[0,0.5],[1,0.5]];portConstraint=eastwest;top=0;left=0;right=0;bottom=0;" vertex="1" parent="P3rJjcqIn0sy1GrmYrkz-71">
          <mxGeometry y="113" width="300" height="22" as="geometry" />
        </mxCell>
        <mxCell id="P3rJjcqIn0sy1GrmYrkz-89" value="int" style="shape=partialRectangle;connectable=0;fillColor=none;top=0;left=0;bottom=0;right=0;align=left;spacingLeft=2;overflow=hidden;fontSize=11;" vertex="1" parent="P3rJjcqIn0sy1GrmYrkz-88">
          <mxGeometry width="36" height="22" as="geometry">
            <mxRectangle width="36" height="22" as="alternateBounds" />
          </mxGeometry>
        </mxCell>
        <mxCell id="P3rJjcqIn0sy1GrmYrkz-90" value="asn" style="shape=partialRectangle;connectable=0;fillColor=none;top=0;left=0;bottom=0;right=0;align=left;spacingLeft=2;overflow=hidden;fontSize=11;" vertex="1" parent="P3rJjcqIn0sy1GrmYrkz-88">
          <mxGeometry x="36" width="66" height="22" as="geometry">
            <mxRectangle width="66" height="22" as="alternateBounds" />
          </mxGeometry>
        </mxCell>
        <mxCell id="P3rJjcqIn0sy1GrmYrkz-91" value="Nullable" style="shape=partialRectangle;connectable=0;fillColor=none;top=0;left=0;bottom=0;right=0;align=left;spacingLeft=2;overflow=hidden;fontSize=11;" vertex="1" parent="P3rJjcqIn0sy1GrmYrkz-88">
          <mxGeometry x="102" width="198" height="22" as="geometry">
            <mxRectangle width="198" height="22" as="alternateBounds" />
          </mxGeometry>
        </mxCell>
        <mxCell id="P3rJjcqIn0sy1GrmYrkz-92" style="shape=tableRow;horizontal=0;startSize=0;swimlaneHead=0;swimlaneBody=0;fillColor=none;collapsible=0;dropTarget=0;points=[[0,0.5],[1,0.5]];portConstraint=eastwest;top=0;left=0;right=0;bottom=0;" vertex="1" parent="P3rJjcqIn0sy1GrmYrkz-71">
          <mxGeometry y="135" width="300" height="22" as="geometry" />
        </mxCell>
        <mxCell id="P3rJjcqIn0sy1GrmYrkz-93" value="string" style="shape=partialRectangle;connectable=0;fillColor=none;top=0;left=0;bottom=0;right=0;align=left;spacingLeft=2;overflow=hidden;fontSize=11;" vertex="1" parent="P3rJjcqIn0sy1GrmYrkz-92">
          <mxGeometry width="36" height="22" as="geometry">
            <mxRectangle width="36" height="22" as="alternateBounds" />
          </mxGeometry>
        </mxCell>
        <mxCell id="P3rJjcqIn0sy1GrmYrkz-94" value="org" style="shape=partialRectangle;connectable=0;fillColor=none;top=0;left=0;bottom=0;right=0;align=left;spacingLeft=2;overflow=hidden;fontSize=11;" vertex="1" parent="P3rJjcqIn0sy1GrmYrkz-92">
          <mxGeometry x="36" width="66" height="22" as="geometry">
            <mxRectangle width="66" height="22" as="alternateBounds" />
          </mxGeometry>
        </mxCell>
        <mxCell id="P3rJjcqIn0sy1GrmYrkz-95" value="Nullable" style="shape=partialRectangle;connectable=0;fillColor=none;top=0;left=0;bottom=0;right=0;align=left;spacingLeft=2;overflow=hidden;fontSize=11;" vertex="1" parent="P3rJjcqIn0sy1GrmYrkz-92">
          <mxGeometry x="102" width="198" height="22" as="geometry">
            <mxRectangle width="198" height="22" as="alternateBounds" />
          </mxGeometry>
        </mxCell>
        <mxCell id="P3rJjcqIn0sy1GrmYrkz-96" style="shape=tableRow;horizontal=0;startSize=0;swimlaneHead=0;swimlaneBody=0;fillColor=none;collapsible=0;dropTarget=0;points=[[0,0.5],[1,0.5]];portConstraint=eastwest;top=0;left=0;right=0;bottom=0;" vertex="1" parent="P3rJjcqIn0sy1GrmYrkz-71">
          <mxGeometry y="157" width="300" height="22" as="geometry" />
        </mxCell>
        <mxCell id="P3rJjcqIn0sy1GrmYrkz-97" value="string" style="shape=partialRectangle;connectable=0;fillColor=none;top=0;left=0;bottom=0;right=0;align=left;spacingLeft=2;overflow=hidden;fontSize=11;" vertex="1" parent="P3rJjcqIn0sy1GrmYrkz-96">
          <mxGeometry width="36" height="22" as="geometry">
            <mxRectangle width="36" height="22" as="alternateBounds" />
          </mxGeometry>
        </mxCell>
        <mxCell id="P3rJjcqIn0sy1GrmYrkz-98" value="isp" style="shape=partialRectangle;connectable=0;fillColor=none;top=0;left=0;bottom=0;right=0;align=left;spacingLeft=2;overflow=hidden;fontSize=11;" vertex="1" parent="P3rJjcqIn0sy1GrmYrkz-96">
          <mxGeometry x="36" width="66" height="22" as="geometry">
            <mxRectangle width="66" height="22" as="alternateBounds" />
          </mxGeometry>
        </mxCell>
        <mxCell id="P3rJjcqIn0sy1GrmYrkz-99" value="Nullable" style="shape=partialRectangle;connectable=0;fillColor=none;top=0;left=0;bottom=0;right=0;align=left;spacingLeft=2;overflow=hidden;fontSize=11;" vertex="1" parent="P3rJjcqIn0sy1GrmYrkz-96">
          <mxGeometry x="102" width="198" height="22" as="geometry">
            <mxRectangle width="198" height="22" as="alternateBounds" />
          </mxGeometry>
        </mxCell>
        <mxCell id="P3rJjcqIn0sy1GrmYrkz-100" style="shape=tableRow;horizontal=0;startSize=0;swimlaneHead=0;swimlaneBody=0;fillColor=none;collapsible=0;dropTarget=0;points=[[0,0.5],[1,0.5]];portConstraint=eastwest;top=0;left=0;right=0;bottom=0;" vertex="1" parent="P3rJjcqIn0sy1GrmYrkz-71">
          <mxGeometry y="179" width="300" height="22" as="geometry" />
        </mxCell>
        <mxCell id="P3rJjcqIn0sy1GrmYrkz-101" value="string" style="shape=partialRectangle;connectable=0;fillColor=none;top=0;left=0;bottom=0;right=0;align=left;spacingLeft=2;overflow=hidden;fontSize=11;" vertex="1" parent="P3rJjcqIn0sy1GrmYrkz-100">
          <mxGeometry width="36" height="22" as="geometry">
            <mxRectangle width="36" height="22" as="alternateBounds" />
          </mxGeometry>
        </mxCell>
        <mxCell id="P3rJjcqIn0sy1GrmYrkz-102" value="domain" style="shape=partialRectangle;connectable=0;fillColor=none;top=0;left=0;bottom=0;right=0;align=left;spacingLeft=2;overflow=hidden;fontSize=11;" vertex="1" parent="P3rJjcqIn0sy1GrmYrkz-100">
          <mxGeometry x="36" width="66" height="22" as="geometry">
            <mxRectangle width="66" height="22" as="alternateBounds" />
          </mxGeometry>
        </mxCell>
        <mxCell id="P3rJjcqIn0sy1GrmYrkz-103" value="Nullable" style="shape=partialRectangle;connectable=0;fillColor=none;top=0;left=0;bottom=0;right=0;align=left;spacingLeft=2;overflow=hidden;fontSize=11;" vertex="1" parent="P3rJjcqIn0sy1GrmYrkz-100">
          <mxGeometry x="102" width="198" height="22" as="geometry">
            <mxRectangle width="198" height="22" as="alternateBounds" />
          </mxGeometry>
        </mxCell>
        <mxCell id="P3rJjcqIn0sy1GrmYrkz-104" value="VISITORS" style="shape=table;startSize=25;container=1;collapsible=0;childLayout=tableLayout;fixedRows=1;rowLines=1;fontStyle=1;align=center;resizeLast=1;" vertex="1" parent="1">
          <mxGeometry x="449" y="741" width="312" height="91" as="geometry" />
        </mxCell>
        <mxCell id="P3rJjcqIn0sy1GrmYrkz-105" style="shape=tableRow;horizontal=0;startSize=0;swimlaneHead=0;swimlaneBody=0;fillColor=none;collapsible=0;dropTarget=0;points=[[0,0.5],[1,0.5]];portConstraint=eastwest;top=0;left=0;right=0;bottom=0;" vertex="1" parent="P3rJjcqIn0sy1GrmYrkz-104">
          <mxGeometry y="25" width="312" height="22" as="geometry" />
        </mxCell>
        <mxCell id="P3rJjcqIn0sy1GrmYrkz-106" value="int" style="shape=partialRectangle;connectable=0;fillColor=none;top=0;left=0;bottom=0;right=0;align=left;spacingLeft=2;overflow=hidden;fontSize=11;" vertex="1" parent="P3rJjcqIn0sy1GrmYrkz-105">
          <mxGeometry width="18" height="22" as="geometry">
            <mxRectangle width="18" height="22" as="alternateBounds" />
          </mxGeometry>
        </mxCell>
        <mxCell id="P3rJjcqIn0sy1GrmYrkz-107" value="id" style="shape=partialRectangle;connectable=0;fillColor=none;top=0;left=0;bottom=0;right=0;align=left;spacingLeft=2;overflow=hidden;fontSize=11;" vertex="1" parent="P3rJjcqIn0sy1GrmYrkz-105">
          <mxGeometry x="18" width="78" height="22" as="geometry">
            <mxRectangle width="78" height="22" as="alternateBounds" />
          </mxGeometry>
        </mxCell>
        <mxCell id="P3rJjcqIn0sy1GrmYrkz-108" value="Auto-increment" style="shape=partialRectangle;connectable=0;fillColor=none;top=0;left=0;bottom=0;right=0;align=left;spacingLeft=2;overflow=hidden;fontSize=11;" vertex="1" parent="P3rJjcqIn0sy1GrmYrkz-105">
          <mxGeometry x="96" width="216" height="22" as="geometry">
            <mxRectangle width="216" height="22" as="alternateBounds" />
          </mxGeometry>
        </mxCell>
        <mxCell id="P3rJjcqIn0sy1GrmYrkz-109" style="shape=tableRow;horizontal=0;startSize=0;swimlaneHead=0;swimlaneBody=0;fillColor=none;collapsible=0;dropTarget=0;points=[[0,0.5],[1,0.5]];portConstraint=eastwest;top=0;left=0;right=0;bottom=0;" vertex="1" parent="P3rJjcqIn0sy1GrmYrkz-104">
          <mxGeometry y="47" width="312" height="22" as="geometry" />
        </mxCell>
        <mxCell id="P3rJjcqIn0sy1GrmYrkz-110" value="int" style="shape=partialRectangle;connectable=0;fillColor=none;top=0;left=0;bottom=0;right=0;align=left;spacingLeft=2;overflow=hidden;fontSize=11;" vertex="1" parent="P3rJjcqIn0sy1GrmYrkz-109">
          <mxGeometry width="18" height="22" as="geometry">
            <mxRectangle width="18" height="22" as="alternateBounds" />
          </mxGeometry>
        </mxCell>
        <mxCell id="P3rJjcqIn0sy1GrmYrkz-111" value="visitor_ip_id" style="shape=partialRectangle;connectable=0;fillColor=none;top=0;left=0;bottom=0;right=0;align=left;spacingLeft=2;overflow=hidden;fontSize=11;" vertex="1" parent="P3rJjcqIn0sy1GrmYrkz-109">
          <mxGeometry x="18" width="78" height="22" as="geometry">
            <mxRectangle width="78" height="22" as="alternateBounds" />
          </mxGeometry>
        </mxCell>
        <mxCell id="P3rJjcqIn0sy1GrmYrkz-112" value="Nullable, References visitor_ips.id" style="shape=partialRectangle;connectable=0;fillColor=none;top=0;left=0;bottom=0;right=0;align=left;spacingLeft=2;overflow=hidden;fontSize=11;" vertex="1" parent="P3rJjcqIn0sy1GrmYrkz-109">
          <mxGeometry x="96" width="216" height="22" as="geometry">
            <mxRectangle width="216" height="22" as="alternateBounds" />
          </mxGeometry>
        </mxCell>
        <mxCell id="P3rJjcqIn0sy1GrmYrkz-113" style="shape=tableRow;horizontal=0;startSize=0;swimlaneHead=0;swimlaneBody=0;fillColor=none;collapsible=0;dropTarget=0;points=[[0,0.5],[1,0.5]];portConstraint=eastwest;top=0;left=0;right=0;bottom=0;" vertex="1" parent="P3rJjcqIn0sy1GrmYrkz-104">
          <mxGeometry y="69" width="312" height="22" as="geometry" />
        </mxCell>
        <mxCell id="P3rJjcqIn0sy1GrmYrkz-114" value="int" style="shape=partialRectangle;connectable=0;fillColor=none;top=0;left=0;bottom=0;right=0;align=left;spacingLeft=2;overflow=hidden;fontSize=11;" vertex="1" parent="P3rJjcqIn0sy1GrmYrkz-113">
          <mxGeometry width="18" height="22" as="geometry">
            <mxRectangle width="18" height="22" as="alternateBounds" />
          </mxGeometry>
        </mxCell>
        <mxCell id="P3rJjcqIn0sy1GrmYrkz-115" value="project_id" style="shape=partialRectangle;connectable=0;fillColor=none;top=0;left=0;bottom=0;right=0;align=left;spacingLeft=2;overflow=hidden;fontSize=11;" vertex="1" parent="P3rJjcqIn0sy1GrmYrkz-113">
          <mxGeometry x="18" width="78" height="22" as="geometry">
            <mxRectangle width="78" height="22" as="alternateBounds" />
          </mxGeometry>
        </mxCell>
        <mxCell id="P3rJjcqIn0sy1GrmYrkz-116" value="Not nullable, References projects.id" style="shape=partialRectangle;connectable=0;fillColor=none;top=0;left=0;bottom=0;right=0;align=left;spacingLeft=2;overflow=hidden;fontSize=11;" vertex="1" parent="P3rJjcqIn0sy1GrmYrkz-113">
          <mxGeometry x="96" width="216" height="22" as="geometry">
            <mxRectangle width="216" height="22" as="alternateBounds" />
          </mxGeometry>
        </mxCell>
        <mxCell id="P3rJjcqIn0sy1GrmYrkz-117" value="PAGES" style="shape=table;startSize=25;container=1;collapsible=0;childLayout=tableLayout;fixedRows=1;rowLines=1;fontStyle=1;align=center;resizeLast=1;" vertex="1" parent="1">
          <mxGeometry x="21" y="730" width="312" height="113" as="geometry" />
        </mxCell>
        <mxCell id="P3rJjcqIn0sy1GrmYrkz-118" style="shape=tableRow;horizontal=0;startSize=0;swimlaneHead=0;swimlaneBody=0;fillColor=none;collapsible=0;dropTarget=0;points=[[0,0.5],[1,0.5]];portConstraint=eastwest;top=0;left=0;right=0;bottom=0;" vertex="1" parent="P3rJjcqIn0sy1GrmYrkz-117">
          <mxGeometry y="25" width="312" height="22" as="geometry" />
        </mxCell>
        <mxCell id="P3rJjcqIn0sy1GrmYrkz-119" value="int" style="shape=partialRectangle;connectable=0;fillColor=none;top=0;left=0;bottom=0;right=0;align=left;spacingLeft=2;overflow=hidden;fontSize=11;" vertex="1" parent="P3rJjcqIn0sy1GrmYrkz-118">
          <mxGeometry width="36" height="22" as="geometry">
            <mxRectangle width="36" height="22" as="alternateBounds" />
          </mxGeometry>
        </mxCell>
        <mxCell id="P3rJjcqIn0sy1GrmYrkz-120" value="id" style="shape=partialRectangle;connectable=0;fillColor=none;top=0;left=0;bottom=0;right=0;align=left;spacingLeft=2;overflow=hidden;fontSize=11;" vertex="1" parent="P3rJjcqIn0sy1GrmYrkz-118">
          <mxGeometry x="36" width="60" height="22" as="geometry">
            <mxRectangle width="60" height="22" as="alternateBounds" />
          </mxGeometry>
        </mxCell>
        <mxCell id="P3rJjcqIn0sy1GrmYrkz-121" value="Integer" style="shape=partialRectangle;connectable=0;fillColor=none;top=0;left=0;bottom=0;right=0;align=left;spacingLeft=2;overflow=hidden;fontSize=11;" vertex="1" parent="P3rJjcqIn0sy1GrmYrkz-118">
          <mxGeometry x="96" width="216" height="22" as="geometry">
            <mxRectangle width="216" height="22" as="alternateBounds" />
          </mxGeometry>
        </mxCell>
        <mxCell id="P3rJjcqIn0sy1GrmYrkz-122" style="shape=tableRow;horizontal=0;startSize=0;swimlaneHead=0;swimlaneBody=0;fillColor=none;collapsible=0;dropTarget=0;points=[[0,0.5],[1,0.5]];portConstraint=eastwest;top=0;left=0;right=0;bottom=0;" vertex="1" parent="P3rJjcqIn0sy1GrmYrkz-117">
          <mxGeometry y="47" width="312" height="22" as="geometry" />
        </mxCell>
        <mxCell id="P3rJjcqIn0sy1GrmYrkz-123" value="string" style="shape=partialRectangle;connectable=0;fillColor=none;top=0;left=0;bottom=0;right=0;align=left;spacingLeft=2;overflow=hidden;fontSize=11;" vertex="1" parent="P3rJjcqIn0sy1GrmYrkz-122">
          <mxGeometry width="36" height="22" as="geometry">
            <mxRectangle width="36" height="22" as="alternateBounds" />
          </mxGeometry>
        </mxCell>
        <mxCell id="P3rJjcqIn0sy1GrmYrkz-124" value="url" style="shape=partialRectangle;connectable=0;fillColor=none;top=0;left=0;bottom=0;right=0;align=left;spacingLeft=2;overflow=hidden;fontSize=11;" vertex="1" parent="P3rJjcqIn0sy1GrmYrkz-122">
          <mxGeometry x="36" width="60" height="22" as="geometry">
            <mxRectangle width="60" height="22" as="alternateBounds" />
          </mxGeometry>
        </mxCell>
        <mxCell id="P3rJjcqIn0sy1GrmYrkz-125" value="Not nullable, unique" style="shape=partialRectangle;connectable=0;fillColor=none;top=0;left=0;bottom=0;right=0;align=left;spacingLeft=2;overflow=hidden;fontSize=11;" vertex="1" parent="P3rJjcqIn0sy1GrmYrkz-122">
          <mxGeometry x="96" width="216" height="22" as="geometry">
            <mxRectangle width="216" height="22" as="alternateBounds" />
          </mxGeometry>
        </mxCell>
        <mxCell id="P3rJjcqIn0sy1GrmYrkz-126" style="shape=tableRow;horizontal=0;startSize=0;swimlaneHead=0;swimlaneBody=0;fillColor=none;collapsible=0;dropTarget=0;points=[[0,0.5],[1,0.5]];portConstraint=eastwest;top=0;left=0;right=0;bottom=0;" vertex="1" parent="P3rJjcqIn0sy1GrmYrkz-117">
          <mxGeometry y="69" width="312" height="22" as="geometry" />
        </mxCell>
        <mxCell id="P3rJjcqIn0sy1GrmYrkz-127" value="string" style="shape=partialRectangle;connectable=0;fillColor=none;top=0;left=0;bottom=0;right=0;align=left;spacingLeft=2;overflow=hidden;fontSize=11;" vertex="1" parent="P3rJjcqIn0sy1GrmYrkz-126">
          <mxGeometry width="36" height="22" as="geometry">
            <mxRectangle width="36" height="22" as="alternateBounds" />
          </mxGeometry>
        </mxCell>
        <mxCell id="P3rJjcqIn0sy1GrmYrkz-128" value="endpoint" style="shape=partialRectangle;connectable=0;fillColor=none;top=0;left=0;bottom=0;right=0;align=left;spacingLeft=2;overflow=hidden;fontSize=11;" vertex="1" parent="P3rJjcqIn0sy1GrmYrkz-126">
          <mxGeometry x="36" width="60" height="22" as="geometry">
            <mxRectangle width="60" height="22" as="alternateBounds" />
          </mxGeometry>
        </mxCell>
        <mxCell id="P3rJjcqIn0sy1GrmYrkz-129" value="Nullable" style="shape=partialRectangle;connectable=0;fillColor=none;top=0;left=0;bottom=0;right=0;align=left;spacingLeft=2;overflow=hidden;fontSize=11;" vertex="1" parent="P3rJjcqIn0sy1GrmYrkz-126">
          <mxGeometry x="96" width="216" height="22" as="geometry">
            <mxRectangle width="216" height="22" as="alternateBounds" />
          </mxGeometry>
        </mxCell>
        <mxCell id="P3rJjcqIn0sy1GrmYrkz-130" style="shape=tableRow;horizontal=0;startSize=0;swimlaneHead=0;swimlaneBody=0;fillColor=none;collapsible=0;dropTarget=0;points=[[0,0.5],[1,0.5]];portConstraint=eastwest;top=0;left=0;right=0;bottom=0;" vertex="1" parent="P3rJjcqIn0sy1GrmYrkz-117">
          <mxGeometry y="91" width="312" height="22" as="geometry" />
        </mxCell>
        <mxCell id="P3rJjcqIn0sy1GrmYrkz-131" value="int" style="shape=partialRectangle;connectable=0;fillColor=none;top=0;left=0;bottom=0;right=0;align=left;spacingLeft=2;overflow=hidden;fontSize=11;" vertex="1" parent="P3rJjcqIn0sy1GrmYrkz-130">
          <mxGeometry width="36" height="22" as="geometry">
            <mxRectangle width="36" height="22" as="alternateBounds" />
          </mxGeometry>
        </mxCell>
        <mxCell id="P3rJjcqIn0sy1GrmYrkz-132" value="project_id" style="shape=partialRectangle;connectable=0;fillColor=none;top=0;left=0;bottom=0;right=0;align=left;spacingLeft=2;overflow=hidden;fontSize=11;" vertex="1" parent="P3rJjcqIn0sy1GrmYrkz-130">
          <mxGeometry x="36" width="60" height="22" as="geometry">
            <mxRectangle width="60" height="22" as="alternateBounds" />
          </mxGeometry>
        </mxCell>
        <mxCell id="P3rJjcqIn0sy1GrmYrkz-133" value="Not nullable, References projects.id" style="shape=partialRectangle;connectable=0;fillColor=none;top=0;left=0;bottom=0;right=0;align=left;spacingLeft=2;overflow=hidden;fontSize=11;" vertex="1" parent="P3rJjcqIn0sy1GrmYrkz-130">
          <mxGeometry x="96" width="216" height="22" as="geometry">
            <mxRectangle width="216" height="22" as="alternateBounds" />
          </mxGeometry>
        </mxCell>
        <mxCell id="P3rJjcqIn0sy1GrmYrkz-134" value="PAGE_VIEWS" style="shape=table;startSize=25;container=1;collapsible=0;childLayout=tableLayout;fixedRows=1;rowLines=1;fontStyle=1;align=center;resizeLast=1;" vertex="1" parent="1">
          <mxGeometry x="223" y="942" width="372" height="179" as="geometry" />
        </mxCell>
        <mxCell id="P3rJjcqIn0sy1GrmYrkz-135" style="shape=tableRow;horizontal=0;startSize=0;swimlaneHead=0;swimlaneBody=0;fillColor=none;collapsible=0;dropTarget=0;points=[[0,0.5],[1,0.5]];portConstraint=eastwest;top=0;left=0;right=0;bottom=0;" vertex="1" parent="P3rJjcqIn0sy1GrmYrkz-134">
          <mxGeometry y="25" width="372" height="22" as="geometry" />
        </mxCell>
        <mxCell id="P3rJjcqIn0sy1GrmYrkz-136" value="int" style="shape=partialRectangle;connectable=0;fillColor=none;top=0;left=0;bottom=0;right=0;align=left;spacingLeft=2;overflow=hidden;fontSize=11;" vertex="1" parent="P3rJjcqIn0sy1GrmYrkz-135">
          <mxGeometry width="54" height="22" as="geometry">
            <mxRectangle width="54" height="22" as="alternateBounds" />
          </mxGeometry>
        </mxCell>
        <mxCell id="P3rJjcqIn0sy1GrmYrkz-137" value="id" style="shape=partialRectangle;connectable=0;fillColor=none;top=0;left=0;bottom=0;right=0;align=left;spacingLeft=2;overflow=hidden;fontSize=11;" vertex="1" parent="P3rJjcqIn0sy1GrmYrkz-135">
          <mxGeometry x="54" width="78" height="22" as="geometry">
            <mxRectangle width="78" height="22" as="alternateBounds" />
          </mxGeometry>
        </mxCell>
        <mxCell id="P3rJjcqIn0sy1GrmYrkz-138" value="Integer" style="shape=partialRectangle;connectable=0;fillColor=none;top=0;left=0;bottom=0;right=0;align=left;spacingLeft=2;overflow=hidden;fontSize=11;" vertex="1" parent="P3rJjcqIn0sy1GrmYrkz-135">
          <mxGeometry x="132" width="240" height="22" as="geometry">
            <mxRectangle width="240" height="22" as="alternateBounds" />
          </mxGeometry>
        </mxCell>
        <mxCell id="P3rJjcqIn0sy1GrmYrkz-139" style="shape=tableRow;horizontal=0;startSize=0;swimlaneHead=0;swimlaneBody=0;fillColor=none;collapsible=0;dropTarget=0;points=[[0,0.5],[1,0.5]];portConstraint=eastwest;top=0;left=0;right=0;bottom=0;" vertex="1" parent="P3rJjcqIn0sy1GrmYrkz-134">
          <mxGeometry y="47" width="372" height="22" as="geometry" />
        </mxCell>
        <mxCell id="P3rJjcqIn0sy1GrmYrkz-140" value="int" style="shape=partialRectangle;connectable=0;fillColor=none;top=0;left=0;bottom=0;right=0;align=left;spacingLeft=2;overflow=hidden;fontSize=11;" vertex="1" parent="P3rJjcqIn0sy1GrmYrkz-139">
          <mxGeometry width="54" height="22" as="geometry">
            <mxRectangle width="54" height="22" as="alternateBounds" />
          </mxGeometry>
        </mxCell>
        <mxCell id="P3rJjcqIn0sy1GrmYrkz-141" value="visitor_id" style="shape=partialRectangle;connectable=0;fillColor=none;top=0;left=0;bottom=0;right=0;align=left;spacingLeft=2;overflow=hidden;fontSize=11;" vertex="1" parent="P3rJjcqIn0sy1GrmYrkz-139">
          <mxGeometry x="54" width="78" height="22" as="geometry">
            <mxRectangle width="78" height="22" as="alternateBounds" />
          </mxGeometry>
        </mxCell>
        <mxCell id="P3rJjcqIn0sy1GrmYrkz-142" value="Not nullable, References visitors.id" style="shape=partialRectangle;connectable=0;fillColor=none;top=0;left=0;bottom=0;right=0;align=left;spacingLeft=2;overflow=hidden;fontSize=11;" vertex="1" parent="P3rJjcqIn0sy1GrmYrkz-139">
          <mxGeometry x="132" width="240" height="22" as="geometry">
            <mxRectangle width="240" height="22" as="alternateBounds" />
          </mxGeometry>
        </mxCell>
        <mxCell id="P3rJjcqIn0sy1GrmYrkz-143" style="shape=tableRow;horizontal=0;startSize=0;swimlaneHead=0;swimlaneBody=0;fillColor=none;collapsible=0;dropTarget=0;points=[[0,0.5],[1,0.5]];portConstraint=eastwest;top=0;left=0;right=0;bottom=0;" vertex="1" parent="P3rJjcqIn0sy1GrmYrkz-134">
          <mxGeometry y="69" width="372" height="22" as="geometry" />
        </mxCell>
        <mxCell id="P3rJjcqIn0sy1GrmYrkz-144" value="int" style="shape=partialRectangle;connectable=0;fillColor=none;top=0;left=0;bottom=0;right=0;align=left;spacingLeft=2;overflow=hidden;fontSize=11;" vertex="1" parent="P3rJjcqIn0sy1GrmYrkz-143">
          <mxGeometry width="54" height="22" as="geometry">
            <mxRectangle width="54" height="22" as="alternateBounds" />
          </mxGeometry>
        </mxCell>
        <mxCell id="P3rJjcqIn0sy1GrmYrkz-145" value="page_id" style="shape=partialRectangle;connectable=0;fillColor=none;top=0;left=0;bottom=0;right=0;align=left;spacingLeft=2;overflow=hidden;fontSize=11;" vertex="1" parent="P3rJjcqIn0sy1GrmYrkz-143">
          <mxGeometry x="54" width="78" height="22" as="geometry">
            <mxRectangle width="78" height="22" as="alternateBounds" />
          </mxGeometry>
        </mxCell>
        <mxCell id="P3rJjcqIn0sy1GrmYrkz-146" value="Not nullable, References pages.id" style="shape=partialRectangle;connectable=0;fillColor=none;top=0;left=0;bottom=0;right=0;align=left;spacingLeft=2;overflow=hidden;fontSize=11;" vertex="1" parent="P3rJjcqIn0sy1GrmYrkz-143">
          <mxGeometry x="132" width="240" height="22" as="geometry">
            <mxRectangle width="240" height="22" as="alternateBounds" />
          </mxGeometry>
        </mxCell>
        <mxCell id="P3rJjcqIn0sy1GrmYrkz-147" style="shape=tableRow;horizontal=0;startSize=0;swimlaneHead=0;swimlaneBody=0;fillColor=none;collapsible=0;dropTarget=0;points=[[0,0.5],[1,0.5]];portConstraint=eastwest;top=0;left=0;right=0;bottom=0;" vertex="1" parent="P3rJjcqIn0sy1GrmYrkz-134">
          <mxGeometry y="91" width="372" height="22" as="geometry" />
        </mxCell>
        <mxCell id="P3rJjcqIn0sy1GrmYrkz-148" value="timestamp" style="shape=partialRectangle;connectable=0;fillColor=none;top=0;left=0;bottom=0;right=0;align=left;spacingLeft=2;overflow=hidden;fontSize=11;" vertex="1" parent="P3rJjcqIn0sy1GrmYrkz-147">
          <mxGeometry width="54" height="22" as="geometry">
            <mxRectangle width="54" height="22" as="alternateBounds" />
          </mxGeometry>
        </mxCell>
        <mxCell id="P3rJjcqIn0sy1GrmYrkz-149" value="session_start" style="shape=partialRectangle;connectable=0;fillColor=none;top=0;left=0;bottom=0;right=0;align=left;spacingLeft=2;overflow=hidden;fontSize=11;" vertex="1" parent="P3rJjcqIn0sy1GrmYrkz-147">
          <mxGeometry x="54" width="78" height="22" as="geometry">
            <mxRectangle width="78" height="22" as="alternateBounds" />
          </mxGeometry>
        </mxCell>
        <mxCell id="P3rJjcqIn0sy1GrmYrkz-150" value="Default: Current timestamp, Not nullable" style="shape=partialRectangle;connectable=0;fillColor=none;top=0;left=0;bottom=0;right=0;align=left;spacingLeft=2;overflow=hidden;fontSize=11;" vertex="1" parent="P3rJjcqIn0sy1GrmYrkz-147">
          <mxGeometry x="132" width="240" height="22" as="geometry">
            <mxRectangle width="240" height="22" as="alternateBounds" />
          </mxGeometry>
        </mxCell>
        <mxCell id="P3rJjcqIn0sy1GrmYrkz-151" style="shape=tableRow;horizontal=0;startSize=0;swimlaneHead=0;swimlaneBody=0;fillColor=none;collapsible=0;dropTarget=0;points=[[0,0.5],[1,0.5]];portConstraint=eastwest;top=0;left=0;right=0;bottom=0;" vertex="1" parent="P3rJjcqIn0sy1GrmYrkz-134">
          <mxGeometry y="113" width="372" height="22" as="geometry" />
        </mxCell>
        <mxCell id="P3rJjcqIn0sy1GrmYrkz-152" value="timestamp" style="shape=partialRectangle;connectable=0;fillColor=none;top=0;left=0;bottom=0;right=0;align=left;spacingLeft=2;overflow=hidden;fontSize=11;" vertex="1" parent="P3rJjcqIn0sy1GrmYrkz-151">
          <mxGeometry width="54" height="22" as="geometry">
            <mxRectangle width="54" height="22" as="alternateBounds" />
          </mxGeometry>
        </mxCell>
        <mxCell id="P3rJjcqIn0sy1GrmYrkz-153" value="session_end" style="shape=partialRectangle;connectable=0;fillColor=none;top=0;left=0;bottom=0;right=0;align=left;spacingLeft=2;overflow=hidden;fontSize=11;" vertex="1" parent="P3rJjcqIn0sy1GrmYrkz-151">
          <mxGeometry x="54" width="78" height="22" as="geometry">
            <mxRectangle width="78" height="22" as="alternateBounds" />
          </mxGeometry>
        </mxCell>
        <mxCell id="P3rJjcqIn0sy1GrmYrkz-154" value="Nullable" style="shape=partialRectangle;connectable=0;fillColor=none;top=0;left=0;bottom=0;right=0;align=left;spacingLeft=2;overflow=hidden;fontSize=11;" vertex="1" parent="P3rJjcqIn0sy1GrmYrkz-151">
          <mxGeometry x="132" width="240" height="22" as="geometry">
            <mxRectangle width="240" height="22" as="alternateBounds" />
          </mxGeometry>
        </mxCell>
        <mxCell id="P3rJjcqIn0sy1GrmYrkz-155" style="shape=tableRow;horizontal=0;startSize=0;swimlaneHead=0;swimlaneBody=0;fillColor=none;collapsible=0;dropTarget=0;points=[[0,0.5],[1,0.5]];portConstraint=eastwest;top=0;left=0;right=0;bottom=0;" vertex="1" parent="P3rJjcqIn0sy1GrmYrkz-134">
          <mxGeometry y="135" width="372" height="22" as="geometry" />
        </mxCell>
        <mxCell id="P3rJjcqIn0sy1GrmYrkz-156" value="int" style="shape=partialRectangle;connectable=0;fillColor=none;top=0;left=0;bottom=0;right=0;align=left;spacingLeft=2;overflow=hidden;fontSize=11;" vertex="1" parent="P3rJjcqIn0sy1GrmYrkz-155">
          <mxGeometry width="54" height="22" as="geometry">
            <mxRectangle width="54" height="22" as="alternateBounds" />
          </mxGeometry>
        </mxCell>
        <mxCell id="P3rJjcqIn0sy1GrmYrkz-157" value="duration" style="shape=partialRectangle;connectable=0;fillColor=none;top=0;left=0;bottom=0;right=0;align=left;spacingLeft=2;overflow=hidden;fontSize=11;" vertex="1" parent="P3rJjcqIn0sy1GrmYrkz-155">
          <mxGeometry x="54" width="78" height="22" as="geometry">
            <mxRectangle width="78" height="22" as="alternateBounds" />
          </mxGeometry>
        </mxCell>
        <mxCell id="P3rJjcqIn0sy1GrmYrkz-158" value="Default 0, Not nullable" style="shape=partialRectangle;connectable=0;fillColor=none;top=0;left=0;bottom=0;right=0;align=left;spacingLeft=2;overflow=hidden;fontSize=11;" vertex="1" parent="P3rJjcqIn0sy1GrmYrkz-155">
          <mxGeometry x="132" width="240" height="22" as="geometry">
            <mxRectangle width="240" height="22" as="alternateBounds" />
          </mxGeometry>
        </mxCell>
        <mxCell id="P3rJjcqIn0sy1GrmYrkz-159" style="shape=tableRow;horizontal=0;startSize=0;swimlaneHead=0;swimlaneBody=0;fillColor=none;collapsible=0;dropTarget=0;points=[[0,0.5],[1,0.5]];portConstraint=eastwest;top=0;left=0;right=0;bottom=0;" vertex="1" parent="P3rJjcqIn0sy1GrmYrkz-134">
          <mxGeometry y="157" width="372" height="22" as="geometry" />
        </mxCell>
        <mxCell id="P3rJjcqIn0sy1GrmYrkz-160" value="string" style="shape=partialRectangle;connectable=0;fillColor=none;top=0;left=0;bottom=0;right=0;align=left;spacingLeft=2;overflow=hidden;fontSize=11;" vertex="1" parent="P3rJjcqIn0sy1GrmYrkz-159">
          <mxGeometry width="54" height="22" as="geometry">
            <mxRectangle width="54" height="22" as="alternateBounds" />
          </mxGeometry>
        </mxCell>
        <mxCell id="P3rJjcqIn0sy1GrmYrkz-161" value="referrer" style="shape=partialRectangle;connectable=0;fillColor=none;top=0;left=0;bottom=0;right=0;align=left;spacingLeft=2;overflow=hidden;fontSize=11;" vertex="1" parent="P3rJjcqIn0sy1GrmYrkz-159">
          <mxGeometry x="54" width="78" height="22" as="geometry">
            <mxRectangle width="78" height="22" as="alternateBounds" />
          </mxGeometry>
        </mxCell>
        <mxCell id="P3rJjcqIn0sy1GrmYrkz-162" value="Nullable" style="shape=partialRectangle;connectable=0;fillColor=none;top=0;left=0;bottom=0;right=0;align=left;spacingLeft=2;overflow=hidden;fontSize=11;" vertex="1" parent="P3rJjcqIn0sy1GrmYrkz-159">
          <mxGeometry x="132" width="240" height="22" as="geometry">
            <mxRectangle width="240" height="22" as="alternateBounds" />
          </mxGeometry>
        </mxCell>
        <mxCell id="P3rJjcqIn0sy1GrmYrkz-163" value="EVENTS" style="shape=table;startSize=25;container=1;collapsible=0;childLayout=tableLayout;fixedRows=1;rowLines=1;fontStyle=1;align=center;resizeLast=1;" vertex="1" parent="1">
          <mxGeometry x="449" y="1220" width="336" height="113" as="geometry" />
        </mxCell>
        <mxCell id="P3rJjcqIn0sy1GrmYrkz-164" style="shape=tableRow;horizontal=0;startSize=0;swimlaneHead=0;swimlaneBody=0;fillColor=none;collapsible=0;dropTarget=0;points=[[0,0.5],[1,0.5]];portConstraint=eastwest;top=0;left=0;right=0;bottom=0;" vertex="1" parent="P3rJjcqIn0sy1GrmYrkz-163">
          <mxGeometry y="25" width="336" height="22" as="geometry" />
        </mxCell>
        <mxCell id="P3rJjcqIn0sy1GrmYrkz-165" value="int" style="shape=partialRectangle;connectable=0;fillColor=none;top=0;left=0;bottom=0;right=0;align=left;spacingLeft=2;overflow=hidden;fontSize=11;" vertex="1" parent="P3rJjcqIn0sy1GrmYrkz-164">
          <mxGeometry width="36" height="22" as="geometry">
            <mxRectangle width="36" height="22" as="alternateBounds" />
          </mxGeometry>
        </mxCell>
        <mxCell id="P3rJjcqIn0sy1GrmYrkz-166" value="id" style="shape=partialRectangle;connectable=0;fillColor=none;top=0;left=0;bottom=0;right=0;align=left;spacingLeft=2;overflow=hidden;fontSize=11;" vertex="1" parent="P3rJjcqIn0sy1GrmYrkz-164">
          <mxGeometry x="36" width="72" height="22" as="geometry">
            <mxRectangle width="72" height="22" as="alternateBounds" />
          </mxGeometry>
        </mxCell>
        <mxCell id="P3rJjcqIn0sy1GrmYrkz-167" value="Integer" style="shape=partialRectangle;connectable=0;fillColor=none;top=0;left=0;bottom=0;right=0;align=left;spacingLeft=2;overflow=hidden;fontSize=11;" vertex="1" parent="P3rJjcqIn0sy1GrmYrkz-164">
          <mxGeometry x="108" width="228" height="22" as="geometry">
            <mxRectangle width="228" height="22" as="alternateBounds" />
          </mxGeometry>
        </mxCell>
        <mxCell id="P3rJjcqIn0sy1GrmYrkz-168" style="shape=tableRow;horizontal=0;startSize=0;swimlaneHead=0;swimlaneBody=0;fillColor=none;collapsible=0;dropTarget=0;points=[[0,0.5],[1,0.5]];portConstraint=eastwest;top=0;left=0;right=0;bottom=0;" vertex="1" parent="P3rJjcqIn0sy1GrmYrkz-163">
          <mxGeometry y="47" width="336" height="22" as="geometry" />
        </mxCell>
        <mxCell id="P3rJjcqIn0sy1GrmYrkz-169" value="int" style="shape=partialRectangle;connectable=0;fillColor=none;top=0;left=0;bottom=0;right=0;align=left;spacingLeft=2;overflow=hidden;fontSize=11;" vertex="1" parent="P3rJjcqIn0sy1GrmYrkz-168">
          <mxGeometry width="36" height="22" as="geometry">
            <mxRectangle width="36" height="22" as="alternateBounds" />
          </mxGeometry>
        </mxCell>
        <mxCell id="P3rJjcqIn0sy1GrmYrkz-170" value="page_view_id" style="shape=partialRectangle;connectable=0;fillColor=none;top=0;left=0;bottom=0;right=0;align=left;spacingLeft=2;overflow=hidden;fontSize=11;" vertex="1" parent="P3rJjcqIn0sy1GrmYrkz-168">
          <mxGeometry x="36" width="72" height="22" as="geometry">
            <mxRectangle width="72" height="22" as="alternateBounds" />
          </mxGeometry>
        </mxCell>
        <mxCell id="P3rJjcqIn0sy1GrmYrkz-171" value="Not nullable, References page_views.id" style="shape=partialRectangle;connectable=0;fillColor=none;top=0;left=0;bottom=0;right=0;align=left;spacingLeft=2;overflow=hidden;fontSize=11;" vertex="1" parent="P3rJjcqIn0sy1GrmYrkz-168">
          <mxGeometry x="108" width="228" height="22" as="geometry">
            <mxRectangle width="228" height="22" as="alternateBounds" />
          </mxGeometry>
        </mxCell>
        <mxCell id="P3rJjcqIn0sy1GrmYrkz-172" style="shape=tableRow;horizontal=0;startSize=0;swimlaneHead=0;swimlaneBody=0;fillColor=none;collapsible=0;dropTarget=0;points=[[0,0.5],[1,0.5]];portConstraint=eastwest;top=0;left=0;right=0;bottom=0;" vertex="1" parent="P3rJjcqIn0sy1GrmYrkz-163">
          <mxGeometry y="69" width="336" height="22" as="geometry" />
        </mxCell>
        <mxCell id="P3rJjcqIn0sy1GrmYrkz-173" value="string" style="shape=partialRectangle;connectable=0;fillColor=none;top=0;left=0;bottom=0;right=0;align=left;spacingLeft=2;overflow=hidden;fontSize=11;" vertex="1" parent="P3rJjcqIn0sy1GrmYrkz-172">
          <mxGeometry width="36" height="22" as="geometry">
            <mxRectangle width="36" height="22" as="alternateBounds" />
          </mxGeometry>
        </mxCell>
        <mxCell id="P3rJjcqIn0sy1GrmYrkz-174" value="event_type" style="shape=partialRectangle;connectable=0;fillColor=none;top=0;left=0;bottom=0;right=0;align=left;spacingLeft=2;overflow=hidden;fontSize=11;" vertex="1" parent="P3rJjcqIn0sy1GrmYrkz-172">
          <mxGeometry x="36" width="72" height="22" as="geometry">
            <mxRectangle width="72" height="22" as="alternateBounds" />
          </mxGeometry>
        </mxCell>
        <mxCell id="P3rJjcqIn0sy1GrmYrkz-175" value="Nullable" style="shape=partialRectangle;connectable=0;fillColor=none;top=0;left=0;bottom=0;right=0;align=left;spacingLeft=2;overflow=hidden;fontSize=11;" vertex="1" parent="P3rJjcqIn0sy1GrmYrkz-172">
          <mxGeometry x="108" width="228" height="22" as="geometry">
            <mxRectangle width="228" height="22" as="alternateBounds" />
          </mxGeometry>
        </mxCell>
        <mxCell id="P3rJjcqIn0sy1GrmYrkz-176" style="shape=tableRow;horizontal=0;startSize=0;swimlaneHead=0;swimlaneBody=0;fillColor=none;collapsible=0;dropTarget=0;points=[[0,0.5],[1,0.5]];portConstraint=eastwest;top=0;left=0;right=0;bottom=0;" vertex="1" parent="P3rJjcqIn0sy1GrmYrkz-163">
          <mxGeometry y="91" width="336" height="22" as="geometry" />
        </mxCell>
        <mxCell id="P3rJjcqIn0sy1GrmYrkz-177" value="text" style="shape=partialRectangle;connectable=0;fillColor=none;top=0;left=0;bottom=0;right=0;align=left;spacingLeft=2;overflow=hidden;fontSize=11;" vertex="1" parent="P3rJjcqIn0sy1GrmYrkz-176">
          <mxGeometry width="36" height="22" as="geometry">
            <mxRectangle width="36" height="22" as="alternateBounds" />
          </mxGeometry>
        </mxCell>
        <mxCell id="P3rJjcqIn0sy1GrmYrkz-178" value="event_data" style="shape=partialRectangle;connectable=0;fillColor=none;top=0;left=0;bottom=0;right=0;align=left;spacingLeft=2;overflow=hidden;fontSize=11;" vertex="1" parent="P3rJjcqIn0sy1GrmYrkz-176">
          <mxGeometry x="36" width="72" height="22" as="geometry">
            <mxRectangle width="72" height="22" as="alternateBounds" />
          </mxGeometry>
        </mxCell>
        <mxCell id="P3rJjcqIn0sy1GrmYrkz-179" value="Nullable" style="shape=partialRectangle;connectable=0;fillColor=none;top=0;left=0;bottom=0;right=0;align=left;spacingLeft=2;overflow=hidden;fontSize=11;" vertex="1" parent="P3rJjcqIn0sy1GrmYrkz-176">
          <mxGeometry x="108" width="228" height="22" as="geometry">
            <mxRectangle width="228" height="22" as="alternateBounds" />
          </mxGeometry>
        </mxCell>
        <mxCell id="P3rJjcqIn0sy1GrmYrkz-180" value="USER_AGENTS" style="shape=table;startSize=25;container=1;collapsible=0;childLayout=tableLayout;fixedRows=1;rowLines=1;fontStyle=1;align=center;resizeLast=1;" vertex="1" parent="1">
          <mxGeometry x="862" y="75" width="202" height="201" as="geometry" />
        </mxCell>
        <mxCell id="P3rJjcqIn0sy1GrmYrkz-181" style="shape=tableRow;horizontal=0;startSize=0;swimlaneHead=0;swimlaneBody=0;fillColor=none;collapsible=0;dropTarget=0;points=[[0,0.5],[1,0.5]];portConstraint=eastwest;top=0;left=0;right=0;bottom=0;" vertex="1" parent="P3rJjcqIn0sy1GrmYrkz-180">
          <mxGeometry y="25" width="202" height="22" as="geometry" />
        </mxCell>
        <mxCell id="P3rJjcqIn0sy1GrmYrkz-182" value="int" style="shape=partialRectangle;connectable=0;fillColor=none;top=0;left=0;bottom=0;right=0;align=left;spacingLeft=2;overflow=hidden;fontSize=11;" vertex="1" parent="P3rJjcqIn0sy1GrmYrkz-181">
          <mxGeometry width="36" height="22" as="geometry">
            <mxRectangle width="36" height="22" as="alternateBounds" />
          </mxGeometry>
        </mxCell>
        <mxCell id="P3rJjcqIn0sy1GrmYrkz-183" value="id" style="shape=partialRectangle;connectable=0;fillColor=none;top=0;left=0;bottom=0;right=0;align=left;spacingLeft=2;overflow=hidden;fontSize=11;" vertex="1" parent="P3rJjcqIn0sy1GrmYrkz-181">
          <mxGeometry x="36" width="118" height="22" as="geometry">
            <mxRectangle width="118" height="22" as="alternateBounds" />
          </mxGeometry>
        </mxCell>
        <mxCell id="P3rJjcqIn0sy1GrmYrkz-184" value="Integer" style="shape=partialRectangle;connectable=0;fillColor=none;top=0;left=0;bottom=0;right=0;align=left;spacingLeft=2;overflow=hidden;fontSize=11;" vertex="1" parent="P3rJjcqIn0sy1GrmYrkz-181">
          <mxGeometry x="154" width="48" height="22" as="geometry">
            <mxRectangle width="48" height="22" as="alternateBounds" />
          </mxGeometry>
        </mxCell>
        <mxCell id="P3rJjcqIn0sy1GrmYrkz-185" style="shape=tableRow;horizontal=0;startSize=0;swimlaneHead=0;swimlaneBody=0;fillColor=none;collapsible=0;dropTarget=0;points=[[0,0.5],[1,0.5]];portConstraint=eastwest;top=0;left=0;right=0;bottom=0;" vertex="1" parent="P3rJjcqIn0sy1GrmYrkz-180">
          <mxGeometry y="47" width="202" height="22" as="geometry" />
        </mxCell>
        <mxCell id="P3rJjcqIn0sy1GrmYrkz-186" value="string" style="shape=partialRectangle;connectable=0;fillColor=none;top=0;left=0;bottom=0;right=0;align=left;spacingLeft=2;overflow=hidden;fontSize=11;" vertex="1" parent="P3rJjcqIn0sy1GrmYrkz-185">
          <mxGeometry width="36" height="22" as="geometry">
            <mxRectangle width="36" height="22" as="alternateBounds" />
          </mxGeometry>
        </mxCell>
        <mxCell id="P3rJjcqIn0sy1GrmYrkz-187" value="user_agent" style="shape=partialRectangle;connectable=0;fillColor=none;top=0;left=0;bottom=0;right=0;align=left;spacingLeft=2;overflow=hidden;fontSize=11;" vertex="1" parent="P3rJjcqIn0sy1GrmYrkz-185">
          <mxGeometry x="36" width="118" height="22" as="geometry">
            <mxRectangle width="118" height="22" as="alternateBounds" />
          </mxGeometry>
        </mxCell>
        <mxCell id="P3rJjcqIn0sy1GrmYrkz-188" value="Nullable" style="shape=partialRectangle;connectable=0;fillColor=none;top=0;left=0;bottom=0;right=0;align=left;spacingLeft=2;overflow=hidden;fontSize=11;" vertex="1" parent="P3rJjcqIn0sy1GrmYrkz-185">
          <mxGeometry x="154" width="48" height="22" as="geometry">
            <mxRectangle width="48" height="22" as="alternateBounds" />
          </mxGeometry>
        </mxCell>
        <mxCell id="P3rJjcqIn0sy1GrmYrkz-189" style="shape=tableRow;horizontal=0;startSize=0;swimlaneHead=0;swimlaneBody=0;fillColor=none;collapsible=0;dropTarget=0;points=[[0,0.5],[1,0.5]];portConstraint=eastwest;top=0;left=0;right=0;bottom=0;" vertex="1" parent="P3rJjcqIn0sy1GrmYrkz-180">
          <mxGeometry y="69" width="202" height="22" as="geometry" />
        </mxCell>
        <mxCell id="P3rJjcqIn0sy1GrmYrkz-190" value="string" style="shape=partialRectangle;connectable=0;fillColor=none;top=0;left=0;bottom=0;right=0;align=left;spacingLeft=2;overflow=hidden;fontSize=11;" vertex="1" parent="P3rJjcqIn0sy1GrmYrkz-189">
          <mxGeometry width="36" height="22" as="geometry">
            <mxRectangle width="36" height="22" as="alternateBounds" />
          </mxGeometry>
        </mxCell>
        <mxCell id="P3rJjcqIn0sy1GrmYrkz-191" value="browser_name" style="shape=partialRectangle;connectable=0;fillColor=none;top=0;left=0;bottom=0;right=0;align=left;spacingLeft=2;overflow=hidden;fontSize=11;" vertex="1" parent="P3rJjcqIn0sy1GrmYrkz-189">
          <mxGeometry x="36" width="118" height="22" as="geometry">
            <mxRectangle width="118" height="22" as="alternateBounds" />
          </mxGeometry>
        </mxCell>
        <mxCell id="P3rJjcqIn0sy1GrmYrkz-192" value="Nullable" style="shape=partialRectangle;connectable=0;fillColor=none;top=0;left=0;bottom=0;right=0;align=left;spacingLeft=2;overflow=hidden;fontSize=11;" vertex="1" parent="P3rJjcqIn0sy1GrmYrkz-189">
          <mxGeometry x="154" width="48" height="22" as="geometry">
            <mxRectangle width="48" height="22" as="alternateBounds" />
          </mxGeometry>
        </mxCell>
        <mxCell id="P3rJjcqIn0sy1GrmYrkz-193" style="shape=tableRow;horizontal=0;startSize=0;swimlaneHead=0;swimlaneBody=0;fillColor=none;collapsible=0;dropTarget=0;points=[[0,0.5],[1,0.5]];portConstraint=eastwest;top=0;left=0;right=0;bottom=0;" vertex="1" parent="P3rJjcqIn0sy1GrmYrkz-180">
          <mxGeometry y="91" width="202" height="22" as="geometry" />
        </mxCell>
        <mxCell id="P3rJjcqIn0sy1GrmYrkz-194" value="string" style="shape=partialRectangle;connectable=0;fillColor=none;top=0;left=0;bottom=0;right=0;align=left;spacingLeft=2;overflow=hidden;fontSize=11;" vertex="1" parent="P3rJjcqIn0sy1GrmYrkz-193">
          <mxGeometry width="36" height="22" as="geometry">
            <mxRectangle width="36" height="22" as="alternateBounds" />
          </mxGeometry>
        </mxCell>
        <mxCell id="P3rJjcqIn0sy1GrmYrkz-195" value="browser_version" style="shape=partialRectangle;connectable=0;fillColor=none;top=0;left=0;bottom=0;right=0;align=left;spacingLeft=2;overflow=hidden;fontSize=11;" vertex="1" parent="P3rJjcqIn0sy1GrmYrkz-193">
          <mxGeometry x="36" width="118" height="22" as="geometry">
            <mxRectangle width="118" height="22" as="alternateBounds" />
          </mxGeometry>
        </mxCell>
        <mxCell id="P3rJjcqIn0sy1GrmYrkz-196" value="Nullable" style="shape=partialRectangle;connectable=0;fillColor=none;top=0;left=0;bottom=0;right=0;align=left;spacingLeft=2;overflow=hidden;fontSize=11;" vertex="1" parent="P3rJjcqIn0sy1GrmYrkz-193">
          <mxGeometry x="154" width="48" height="22" as="geometry">
            <mxRectangle width="48" height="22" as="alternateBounds" />
          </mxGeometry>
        </mxCell>
        <mxCell id="P3rJjcqIn0sy1GrmYrkz-197" style="shape=tableRow;horizontal=0;startSize=0;swimlaneHead=0;swimlaneBody=0;fillColor=none;collapsible=0;dropTarget=0;points=[[0,0.5],[1,0.5]];portConstraint=eastwest;top=0;left=0;right=0;bottom=0;" vertex="1" parent="P3rJjcqIn0sy1GrmYrkz-180">
          <mxGeometry y="113" width="202" height="22" as="geometry" />
        </mxCell>
        <mxCell id="P3rJjcqIn0sy1GrmYrkz-198" value="string" style="shape=partialRectangle;connectable=0;fillColor=none;top=0;left=0;bottom=0;right=0;align=left;spacingLeft=2;overflow=hidden;fontSize=11;" vertex="1" parent="P3rJjcqIn0sy1GrmYrkz-197">
          <mxGeometry width="36" height="22" as="geometry">
            <mxRectangle width="36" height="22" as="alternateBounds" />
          </mxGeometry>
        </mxCell>
        <mxCell id="P3rJjcqIn0sy1GrmYrkz-199" value="browser_language" style="shape=partialRectangle;connectable=0;fillColor=none;top=0;left=0;bottom=0;right=0;align=left;spacingLeft=2;overflow=hidden;fontSize=11;" vertex="1" parent="P3rJjcqIn0sy1GrmYrkz-197">
          <mxGeometry x="36" width="118" height="22" as="geometry">
            <mxRectangle width="118" height="22" as="alternateBounds" />
          </mxGeometry>
        </mxCell>
        <mxCell id="P3rJjcqIn0sy1GrmYrkz-200" value="Nullable" style="shape=partialRectangle;connectable=0;fillColor=none;top=0;left=0;bottom=0;right=0;align=left;spacingLeft=2;overflow=hidden;fontSize=11;" vertex="1" parent="P3rJjcqIn0sy1GrmYrkz-197">
          <mxGeometry x="154" width="48" height="22" as="geometry">
            <mxRectangle width="48" height="22" as="alternateBounds" />
          </mxGeometry>
        </mxCell>
        <mxCell id="P3rJjcqIn0sy1GrmYrkz-201" style="shape=tableRow;horizontal=0;startSize=0;swimlaneHead=0;swimlaneBody=0;fillColor=none;collapsible=0;dropTarget=0;points=[[0,0.5],[1,0.5]];portConstraint=eastwest;top=0;left=0;right=0;bottom=0;" vertex="1" parent="P3rJjcqIn0sy1GrmYrkz-180">
          <mxGeometry y="135" width="202" height="22" as="geometry" />
        </mxCell>
        <mxCell id="P3rJjcqIn0sy1GrmYrkz-202" value="string" style="shape=partialRectangle;connectable=0;fillColor=none;top=0;left=0;bottom=0;right=0;align=left;spacingLeft=2;overflow=hidden;fontSize=11;" vertex="1" parent="P3rJjcqIn0sy1GrmYrkz-201">
          <mxGeometry width="36" height="22" as="geometry">
            <mxRectangle width="36" height="22" as="alternateBounds" />
          </mxGeometry>
        </mxCell>
        <mxCell id="P3rJjcqIn0sy1GrmYrkz-203" value="os_name" style="shape=partialRectangle;connectable=0;fillColor=none;top=0;left=0;bottom=0;right=0;align=left;spacingLeft=2;overflow=hidden;fontSize=11;" vertex="1" parent="P3rJjcqIn0sy1GrmYrkz-201">
          <mxGeometry x="36" width="118" height="22" as="geometry">
            <mxRectangle width="118" height="22" as="alternateBounds" />
          </mxGeometry>
        </mxCell>
        <mxCell id="P3rJjcqIn0sy1GrmYrkz-204" value="Nullable" style="shape=partialRectangle;connectable=0;fillColor=none;top=0;left=0;bottom=0;right=0;align=left;spacingLeft=2;overflow=hidden;fontSize=11;" vertex="1" parent="P3rJjcqIn0sy1GrmYrkz-201">
          <mxGeometry x="154" width="48" height="22" as="geometry">
            <mxRectangle width="48" height="22" as="alternateBounds" />
          </mxGeometry>
        </mxCell>
        <mxCell id="P3rJjcqIn0sy1GrmYrkz-205" style="shape=tableRow;horizontal=0;startSize=0;swimlaneHead=0;swimlaneBody=0;fillColor=none;collapsible=0;dropTarget=0;points=[[0,0.5],[1,0.5]];portConstraint=eastwest;top=0;left=0;right=0;bottom=0;" vertex="1" parent="P3rJjcqIn0sy1GrmYrkz-180">
          <mxGeometry y="157" width="202" height="22" as="geometry" />
        </mxCell>
        <mxCell id="P3rJjcqIn0sy1GrmYrkz-206" value="string" style="shape=partialRectangle;connectable=0;fillColor=none;top=0;left=0;bottom=0;right=0;align=left;spacingLeft=2;overflow=hidden;fontSize=11;" vertex="1" parent="P3rJjcqIn0sy1GrmYrkz-205">
          <mxGeometry width="36" height="22" as="geometry">
            <mxRectangle width="36" height="22" as="alternateBounds" />
          </mxGeometry>
        </mxCell>
        <mxCell id="P3rJjcqIn0sy1GrmYrkz-207" value="os_version" style="shape=partialRectangle;connectable=0;fillColor=none;top=0;left=0;bottom=0;right=0;align=left;spacingLeft=2;overflow=hidden;fontSize=11;" vertex="1" parent="P3rJjcqIn0sy1GrmYrkz-205">
          <mxGeometry x="36" width="118" height="22" as="geometry">
            <mxRectangle width="118" height="22" as="alternateBounds" />
          </mxGeometry>
        </mxCell>
        <mxCell id="P3rJjcqIn0sy1GrmYrkz-208" value="Nullable" style="shape=partialRectangle;connectable=0;fillColor=none;top=0;left=0;bottom=0;right=0;align=left;spacingLeft=2;overflow=hidden;fontSize=11;" vertex="1" parent="P3rJjcqIn0sy1GrmYrkz-205">
          <mxGeometry x="154" width="48" height="22" as="geometry">
            <mxRectangle width="48" height="22" as="alternateBounds" />
          </mxGeometry>
        </mxCell>
        <mxCell id="P3rJjcqIn0sy1GrmYrkz-209" style="shape=tableRow;horizontal=0;startSize=0;swimlaneHead=0;swimlaneBody=0;fillColor=none;collapsible=0;dropTarget=0;points=[[0,0.5],[1,0.5]];portConstraint=eastwest;top=0;left=0;right=0;bottom=0;" vertex="1" parent="P3rJjcqIn0sy1GrmYrkz-180">
          <mxGeometry y="179" width="202" height="22" as="geometry" />
        </mxCell>
        <mxCell id="P3rJjcqIn0sy1GrmYrkz-210" value="string" style="shape=partialRectangle;connectable=0;fillColor=none;top=0;left=0;bottom=0;right=0;align=left;spacingLeft=2;overflow=hidden;fontSize=11;" vertex="1" parent="P3rJjcqIn0sy1GrmYrkz-209">
          <mxGeometry width="36" height="22" as="geometry">
            <mxRectangle width="36" height="22" as="alternateBounds" />
          </mxGeometry>
        </mxCell>
        <mxCell id="P3rJjcqIn0sy1GrmYrkz-211" value="device_type" style="shape=partialRectangle;connectable=0;fillColor=none;top=0;left=0;bottom=0;right=0;align=left;spacingLeft=2;overflow=hidden;fontSize=11;" vertex="1" parent="P3rJjcqIn0sy1GrmYrkz-209">
          <mxGeometry x="36" width="118" height="22" as="geometry">
            <mxRectangle width="118" height="22" as="alternateBounds" />
          </mxGeometry>
        </mxCell>
        <mxCell id="P3rJjcqIn0sy1GrmYrkz-212" value="Nullable" style="shape=partialRectangle;connectable=0;fillColor=none;top=0;left=0;bottom=0;right=0;align=left;spacingLeft=2;overflow=hidden;fontSize=11;" vertex="1" parent="P3rJjcqIn0sy1GrmYrkz-209">
          <mxGeometry x="154" width="48" height="22" as="geometry">
            <mxRectangle width="48" height="22" as="alternateBounds" />
          </mxGeometry>
        </mxCell>
        <mxCell id="P3rJjcqIn0sy1GrmYrkz-213" value="REAL_TIME_PAGE_VIEWS" style="shape=table;startSize=25;container=1;collapsible=0;childLayout=tableLayout;fixedRows=1;rowLines=1;fontStyle=1;align=center;resizeLast=1;" vertex="1" parent="1">
          <mxGeometry x="20" y="1231" width="342" height="91" as="geometry" />
        </mxCell>
        <mxCell id="P3rJjcqIn0sy1GrmYrkz-214" style="shape=tableRow;horizontal=0;startSize=0;swimlaneHead=0;swimlaneBody=0;fillColor=none;collapsible=0;dropTarget=0;points=[[0,0.5],[1,0.5]];portConstraint=eastwest;top=0;left=0;right=0;bottom=0;" vertex="1" parent="P3rJjcqIn0sy1GrmYrkz-213">
          <mxGeometry y="25" width="342" height="22" as="geometry" />
        </mxCell>
        <mxCell id="P3rJjcqIn0sy1GrmYrkz-215" value="int" style="shape=partialRectangle;connectable=0;fillColor=none;top=0;left=0;bottom=0;right=0;align=left;spacingLeft=2;overflow=hidden;fontSize=11;" vertex="1" parent="P3rJjcqIn0sy1GrmYrkz-214">
          <mxGeometry width="42" height="22" as="geometry">
            <mxRectangle width="42" height="22" as="alternateBounds" />
          </mxGeometry>
        </mxCell>
        <mxCell id="P3rJjcqIn0sy1GrmYrkz-216" value="id" style="shape=partialRectangle;connectable=0;fillColor=none;top=0;left=0;bottom=0;right=0;align=left;spacingLeft=2;overflow=hidden;fontSize=11;" vertex="1" parent="P3rJjcqIn0sy1GrmYrkz-214">
          <mxGeometry x="42" width="72" height="22" as="geometry">
            <mxRectangle width="72" height="22" as="alternateBounds" />
          </mxGeometry>
        </mxCell>
        <mxCell id="P3rJjcqIn0sy1GrmYrkz-217" value="Integer" style="shape=partialRectangle;connectable=0;fillColor=none;top=0;left=0;bottom=0;right=0;align=left;spacingLeft=2;overflow=hidden;fontSize=11;" vertex="1" parent="P3rJjcqIn0sy1GrmYrkz-214">
          <mxGeometry x="114" width="228" height="22" as="geometry">
            <mxRectangle width="228" height="22" as="alternateBounds" />
          </mxGeometry>
        </mxCell>
        <mxCell id="P3rJjcqIn0sy1GrmYrkz-218" style="shape=tableRow;horizontal=0;startSize=0;swimlaneHead=0;swimlaneBody=0;fillColor=none;collapsible=0;dropTarget=0;points=[[0,0.5],[1,0.5]];portConstraint=eastwest;top=0;left=0;right=0;bottom=0;" vertex="1" parent="P3rJjcqIn0sy1GrmYrkz-213">
          <mxGeometry y="47" width="342" height="22" as="geometry" />
        </mxCell>
        <mxCell id="P3rJjcqIn0sy1GrmYrkz-219" value="int" style="shape=partialRectangle;connectable=0;fillColor=none;top=0;left=0;bottom=0;right=0;align=left;spacingLeft=2;overflow=hidden;fontSize=11;" vertex="1" parent="P3rJjcqIn0sy1GrmYrkz-218">
          <mxGeometry width="42" height="22" as="geometry">
            <mxRectangle width="42" height="22" as="alternateBounds" />
          </mxGeometry>
        </mxCell>
        <mxCell id="P3rJjcqIn0sy1GrmYrkz-220" value="page_view_id" style="shape=partialRectangle;connectable=0;fillColor=none;top=0;left=0;bottom=0;right=0;align=left;spacingLeft=2;overflow=hidden;fontSize=11;" vertex="1" parent="P3rJjcqIn0sy1GrmYrkz-218">
          <mxGeometry x="42" width="72" height="22" as="geometry">
            <mxRectangle width="72" height="22" as="alternateBounds" />
          </mxGeometry>
        </mxCell>
        <mxCell id="P3rJjcqIn0sy1GrmYrkz-221" value="Not nullable, References page_views.id" style="shape=partialRectangle;connectable=0;fillColor=none;top=0;left=0;bottom=0;right=0;align=left;spacingLeft=2;overflow=hidden;fontSize=11;" vertex="1" parent="P3rJjcqIn0sy1GrmYrkz-218">
          <mxGeometry x="114" width="228" height="22" as="geometry">
            <mxRectangle width="228" height="22" as="alternateBounds" />
          </mxGeometry>
        </mxCell>
        <mxCell id="P3rJjcqIn0sy1GrmYrkz-222" style="shape=tableRow;horizontal=0;startSize=0;swimlaneHead=0;swimlaneBody=0;fillColor=none;collapsible=0;dropTarget=0;points=[[0,0.5],[1,0.5]];portConstraint=eastwest;top=0;left=0;right=0;bottom=0;" vertex="1" parent="P3rJjcqIn0sy1GrmYrkz-213">
          <mxGeometry y="69" width="342" height="22" as="geometry" />
        </mxCell>
        <mxCell id="P3rJjcqIn0sy1GrmYrkz-223" value="boolean" style="shape=partialRectangle;connectable=0;fillColor=none;top=0;left=0;bottom=0;right=0;align=left;spacingLeft=2;overflow=hidden;fontSize=11;" vertex="1" parent="P3rJjcqIn0sy1GrmYrkz-222">
          <mxGeometry width="42" height="22" as="geometry">
            <mxRectangle width="42" height="22" as="alternateBounds" />
          </mxGeometry>
        </mxCell>
        <mxCell id="P3rJjcqIn0sy1GrmYrkz-224" value="active" style="shape=partialRectangle;connectable=0;fillColor=none;top=0;left=0;bottom=0;right=0;align=left;spacingLeft=2;overflow=hidden;fontSize=11;" vertex="1" parent="P3rJjcqIn0sy1GrmYrkz-222">
          <mxGeometry x="42" width="72" height="22" as="geometry">
            <mxRectangle width="72" height="22" as="alternateBounds" />
          </mxGeometry>
        </mxCell>
        <mxCell id="P3rJjcqIn0sy1GrmYrkz-225" value="Default: True, Nullable" style="shape=partialRectangle;connectable=0;fillColor=none;top=0;left=0;bottom=0;right=0;align=left;spacingLeft=2;overflow=hidden;fontSize=11;" vertex="1" parent="P3rJjcqIn0sy1GrmYrkz-222">
          <mxGeometry x="114" width="228" height="22" as="geometry">
            <mxRectangle width="228" height="22" as="alternateBounds" />
          </mxGeometry>
        </mxCell>
        <mxCell id="P3rJjcqIn0sy1GrmYrkz-226" value="" style="curved=1;startArrow=ERmandOne;startSize=10;;endArrow=ERmany;endSize=10;;exitX=0.8238011695906432;exitY=1;entryX=0.2267703797774553;entryY=0;rounded=0;" edge="1" parent="1" source="P3rJjcqIn0sy1GrmYrkz-1" target="P3rJjcqIn0sy1GrmYrkz-104">
          <mxGeometry relative="1" as="geometry">
            <Array as="points">
              <mxPoint x="418" y="680" />
            </Array>
          </mxGeometry>
        </mxCell>
        <mxCell id="P3rJjcqIn0sy1GrmYrkz-227" value="" style="curved=1;startArrow=ERmandOne;startSize=10;;endArrow=ERmany;endSize=10;;exitX=0.4181286549707603;exitY=1;entryX=0.4775641025641026;entryY=0;rounded=0;" edge="1" parent="1" source="P3rJjcqIn0sy1GrmYrkz-1" target="P3rJjcqIn0sy1GrmYrkz-117">
          <mxGeometry relative="1" as="geometry">
            <Array as="points">
              <mxPoint x="170" y="680" />
            </Array>
          </mxGeometry>
        </mxCell>
        <mxCell id="P3rJjcqIn0sy1GrmYrkz-228" value="" style="curved=1;startArrow=ERmandOne;startSize=10;;endArrow=ERmany;endSize=10;;exitX=0.5;exitY=1;entryX=0.4666666666666667;entryY=0;rounded=0;" edge="1" parent="1" source="P3rJjcqIn0sy1GrmYrkz-18" target="P3rJjcqIn0sy1GrmYrkz-71">
          <mxGeometry relative="1" as="geometry">
            <Array as="points" />
          </mxGeometry>
        </mxCell>
        <mxCell id="P3rJjcqIn0sy1GrmYrkz-229" value="" style="curved=1;startArrow=ERmandOne;startSize=10;;endArrow=ERmany;endSize=10;;exitX=0.4666666666666667;exitY=1;entryX=0.5359820996613448;entryY=0;rounded=0;" edge="1" parent="1" source="P3rJjcqIn0sy1GrmYrkz-71" target="P3rJjcqIn0sy1GrmYrkz-104">
          <mxGeometry relative="1" as="geometry">
            <Array as="points">
              <mxPoint x="645" y="680" />
            </Array>
          </mxGeometry>
        </mxCell>
        <mxCell id="P3rJjcqIn0sy1GrmYrkz-230" value="" style="curved=1;startArrow=ERmandOne;startSize=10;;endArrow=ERmany;endSize=10;;exitX=0.46794871794871795;exitY=1;entryX=0.8087820066527422;entryY=0;rounded=0;" edge="1" parent="1" source="P3rJjcqIn0sy1GrmYrkz-104" target="P3rJjcqIn0sy1GrmYrkz-134">
          <mxGeometry relative="1" as="geometry">
            <Array as="points">
              <mxPoint x="595" y="892" />
            </Array>
          </mxGeometry>
        </mxCell>
        <mxCell id="P3rJjcqIn0sy1GrmYrkz-231" value="" style="curved=1;startArrow=ERmandOne;startSize=10;;endArrow=ERmany;endSize=10;;exitX=0.4775641025641026;exitY=1;entryX=0.07727044171114723;entryY=0;rounded=0;" edge="1" parent="1" source="P3rJjcqIn0sy1GrmYrkz-117" target="P3rJjcqIn0sy1GrmYrkz-134">
          <mxGeometry relative="1" as="geometry">
            <Array as="points">
              <mxPoint x="170" y="892" />
            </Array>
          </mxGeometry>
        </mxCell>
        <mxCell id="P3rJjcqIn0sy1GrmYrkz-232" value="" style="curved=1;startArrow=ERmandOne;startSize=10;;endArrow=ERmany;endSize=10;;exitX=0.8346000618859752;exitY=1;entryX=0.4791666666666667;entryY=0;rounded=0;" edge="1" parent="1" source="P3rJjcqIn0sy1GrmYrkz-134" target="P3rJjcqIn0sy1GrmYrkz-163">
          <mxGeometry relative="1" as="geometry">
            <Array as="points">
              <mxPoint x="610" y="1170" />
            </Array>
          </mxGeometry>
        </mxCell>
        <mxCell id="P3rJjcqIn0sy1GrmYrkz-233" value="" style="curved=1;startArrow=ERmandOne;startSize=10;;endArrow=ERmany;endSize=10;;exitX=0.10222789510327211;exitY=1;entryX=0.48099415204678364;entryY=0;rounded=0;" edge="1" parent="1" source="P3rJjcqIn0sy1GrmYrkz-134" target="P3rJjcqIn0sy1GrmYrkz-213">
          <mxGeometry relative="1" as="geometry">
            <Array as="points">
              <mxPoint x="185" y="1170" />
            </Array>
          </mxGeometry>
        </mxCell>
      </root>
    </mxGraphModel>
  </diagram>
</mxfile>
